/* XPM */
static char *ed7d1187e6f345a8aab1bc11cecd6a104fRyUMQcGLUNsLeV[] = {
/* columns rows colors chars-per-pixel */
"75 75 139 2 ",
"   c #427291",
".  c #497795",
"X  c #527E9A",
"o  c #56819D",
"O  c #58829D",
"+  c #5F88A2",
"@  c #618BA4",
"#  c #6890A7",
"$  c #6A91A8",
"%  c #6CA8BF",
"&  c #6EA9C0",
"*  c #75AEC3",
"=  c #78AFC4",
"-  c #7BB1C5",
";  c #81A4B7",
":  c #87A9BB",
">  c #8EAEBE",
",  c #84B7C9",
"<  c #86B8CA",
"1  c #8BBBCC",
"2  c #93B2C2",
"3  c #92BFCE",
"4  c #94C0CF",
"5  c #95C1D0",
"6  c #9CC5D3",
"7  c #A1C7D4",
"8  c #ABC6D1",
"9  c #A4C9D6",
"0  c #A9CCD7",
"q  c #A6CBD8",
"w  c #ADCED9",
"e  c #B0CFD9",
"r  c #AFD1DC",
"t  c #B4D2DB",
"y  c #BDD6DE",
"u  c #BFD8DF",
"i  c #B7D6E0",
"p  c #B8D7E0",
"a  c #BCD9E2",
"s  c #C0D8DF",
"d  c #C4DBE1",
"f  c #C9DEE4",
"g  c #CBE0E5",
"h  c #CBE0E6",
"j  c #CCE0E6",
"k  c #CCE1E6",
"l  c #CDE1E6",
"z  c #CDE1E7",
"x  c #CEE1E7",
"c  c #CEE2E7",
"v  c #CFE2E7",
"b  c #CBE0E6",
"n  c #C8E1E8",
"m  c #C9E1E8",
"M  c #CBE2E9",
"N  c #CFE2E8",
"B  c #CFE3E8",
"V  c #CCE3EA",
"C  c #CFE4EB",
"Z  c #CFE4E9",
"A  c #D0E3E8",
"S  c #D2E2E8",
"D  c #D0E4E8",
"F  c #D1E4E9",
"G  c #D2E4E9",
"H  c #D2E5E9",
"J  c #D1E5EA",
"K  c #D2E5EA",
"L  c #D3E5EA",
"P  c #D3E6EA",
"I  c #D4E4E9",
"U  c #D4E6EA",
"Y  c #D4E6EB",
"T  c #D5E6EB",
"R  c #D5E7EB",
"E  c #D6E7EB",
"W  c #D1E6EC",
"Q  c #D3E7EC",
"!  c #D6E7EC",
"~  c #D2E5EA",
"^  c #D5E8ED",
"/  c #D6E8EC",
"(  c #D7E8EC",
")  c #D7E8ED",
"_  c #D5E8EE",
"`  c #D7E9EE",
"'  c #D5E8ED",
"]  c #D8E9ED",
"[  c #D9E9ED",
"{  c #D9EAED",
"}  c #D9EAEE",
"|  c #D8EAEF",
" . c #DAEAEE",
".. c #DAEBEE",
"X. c #DBEBEE",
"o. c #DBEBEF",
"O. c #DCEBEF",
"+. c #DCECEF",
"@. c #DDECEF",
"#. c #DAEAEE",
"$. c #DAEBF0",
"%. c #DBECF0",
"&. c #DCECF0",
"*. c #DDECF0",
"=. c #DDEDF0",
"-. c #DDEDF1",
";. c #DEEDF0",
":. c #DFEDF1",
">. c #DFEEF1",
",. c #DFEEF2",
"<. c #DDEDF1",
"1. c #E0EEF1",
"2. c #E0EFF1",
"3. c #E0EFF2",
"4. c #E1EFF2",
"5. c #E2F0F2",
"6. c #E2F0F3",
"7. c #E3F0F3",
"8. c #E3F1F3",
"9. c #E4F1F3",
"0. c #E3F1F4",
"q. c #E4F1F4",
"w. c #E4F2F4",
"e. c #E5F2F4",
"r. c #E5F2F5",
"t. c #E6F2F5",
"y. c #E6F3F5",
"u. c #E7F3F5",
"i. c #E7F3F6",
"p. c #E7F4F6",
"a. c #E5F2F4",
"s. c #E8F4F6",
"d. c #E9F4F6",
"f. c #E9F5F6",
"g. c #E9F5F7",
"h. c #EAF5F7",
"j. c #EBF6F7",
"k. c #E8F4F6",
"l. c #EBF6F8",
/* pixels */
"1 1 1 1 1 1 1 1 1 1 1 1 1 1 1 1 1 1 1 e s s s s s s s s s y 6 1 1 1 1 1 3 y s s s s s s s s s s s s s s s s W t.t.d.j.r.j.r.j.I X               .   . ",
"1 1 1 1 1 1 1 1 1 1 1 1 1 1 1 1 1 1 1 e s s s s s s s s s 7 3 < 1 1 1 1 4 y s s s s s s s s s s s s s s s s d 4.t.j.r.j.r.j.j.S X                     ",
"1 1 1 1 1 1 1 1 1 1 1 1 1 1 1 1 1 1 1 e s s s s s s s s s 5 1 1 1 1 1 3 e s s s s u s s s s d ( f d s s s s s U j.t.j.r.t.j.j.f +                     ",
"1 1 1 1 1 1 1 1 1 1 1 1 1 1 1 1 1 1 1 e s s s s s s s s 7 3 1 1 1 1 1 4 s s s s s s s u u d *.t.4.f s s s s s d [ j.t.j.t.t.( d ;                     ",
"1 1 1 1 1 1 1 1 1 1 1 1 1 1 1 1 1 1 1 e s s s s s s y 7 1 1 1 1 1 1 3 w s s s s s s s u f [ j.r.U d s s s s s s d ! r.j.t.U d s 8 X                   ",
"1 1 1 1 1 1 1 1 1 1 1 1 1 1 1 1 1 1 1 0 s s s s s s y 3 < 1 1 < 3 9 e s s s s s s u u f [ j.t.e.d s s s s s s s s s A r.[ f s s s > .                 ",
"1 1 1 1 1 1 1 1 1 1 1 1 1 1 1 1 1 3 7 t s s s s s s y 3 6 7 7 7 e s s s s s s s u u f [ j.t.e.U s s s s s s s s s s d 2.f s s s s y #                 ",
"1 1 1 1 1 1 1 1 1 1 1 1 1 1 1 1 1 1 t s s s s s s s y 3 t s s s s s s s s s s y u f *.r.j.j.5.s s s s s s s s s s s d U f s s s s s :                 ",
"1 1 1 1 1 1 1 1 1 1 1 1 1 1 1 < 1 5 t s s s s s s s y 7 t s s s s s s s s s f f f @.j.r.e.2.[ d s s s s s s s s s s s s s s s s s s 8 X               ",
"1 1 1 1 1 1 1 1 1 1 1 1 1 1 1 5 3 t s s s s s s s s s s s s s s s s s s s d O.t.j.r.j.r.( s s s s s s s s s s s s s s s s s s s s s u 2 X             ",
"1 1 1 1 1 1 1 1 1 5 5 4 5 5 5 y u u s s s s s s s s s s s s s s s s s s s s d 2.j.r.e.U s s s s s s s s s s s s s s s s s s s s s s s s 8 ; # @ + @ + ",
"1 1 1 1 1 1 1 1 1 a -.-.$.Z y u s s s s s s s s s s s s s s s s s s s s s s s 1.t.j.U f s s s s s s s s s s s s s s s s s s s s s s s s s f f f s f f ",
"1 1 1 1 1 1 1 1 1 d j.j.$.f s u s s s s s s s s s s s s s s s s s s s s s s O.u.j.r.0.W s s s s s s s s s s s s s s s s s s s s s s d W [ e.r.e.j.r.j.",
"1 1 1 1 1 1 1 1 1 d j.j...u s s s s s s s s s s s s s s s s s s s s s s s s e.t.r.j.j.E s s s s s s s s s s s s s s s s s s s s s x 2.r.j.r.j.j.p.j.r.",
"1 1 1 1 1 1 1 1 1 n j.@.f s s s s s s s s u s s s s s s s U f u s s s s s s u.j.j.r.j.E s s s s s s s s s s s s s s s s s s s x [ e.j.r.j.r.j.r.j.r.j.",
"1 1 1 1 1 1 1 1 < q W E u s s s s s s s s s s s s s s s s @.x u s s s s s X.u.d.r.j.j.U s s s u s s s B U [ U x s s s s s s d -.t.j.r.j.r.j.r.j.r.j.r.",
"1 1 1 1 1 1 1 1 1 1 p [ s s s s s s s s s u s s s s s s W 5.x u s s s d U e.r.j.p.p.p.( s s s s s s s O.j.t.j.2.x s s s s s d r.j.r.j.r.j.r.j.r.j.r.j.",
"1 1 1 1 1 1 1 1 1 1 a [ s s s s s s s s s s s s s s s d 2.j.x u s s s U j.r.j.r.j.p.j.! s s s s s s x 2.r.j.j.j.-.s s s s s f r.r.j.r.j.r.j.r.j.r.j.r.",
"1 1 1 1 1 1 1 1 1 1 t S s s s s s s s s s s s s s s s s -.r.x u f f W t.r.j.r.j.r.j.j.U s s s s u d -.t.j.r.j.j.2.u u s s s x e.j.r.j.r.j.r.j.r.e.j.j.",
"1 1 1 1 1 1 1 1 1 1 0 s s s s s s s s s s s s s s s s f 5.j.U f U j.j.r.j.r.j.r.j.r.j.! u s s u s f 2.j.r.j.t.r.[ d s s s s O.t.r.j.r.j.r.j.r.j.@.x x ",
"1 1 1 1 1 1 1 1 1 1 9 s s s s s s s s u s s s s s s d 2.j.t.t.t.t.r.j.r.r.j.r.j.r.r.j.E s s s u f 2.r.j.0.4.4.[ s s u u s d @.j.j.r.j.r.j.e.r.j.U s s ",
"1 1 1 1 1 1 1 1 1 1 9 u s s s s s s s s s s s s u u f 5.t.r.e.t.j.j.r.j.j.r.j.r.j.r.e.W s s s f 2.t.j.r.! d d s s u u d d @.r.r.r.j.r.j.r.j.e.1.x s s ",
"1 1 1 1 1 1 1 1 1 1 3 9 s s s s s s s s u u s s s f 5.p.t.S d ( j.r.j.r.r.j.p.j.j.U f s s s f 2.t.j.t.j.r.W s d s d f @.5.r.j.t.j.r.j.r.j.r.S s s s s ",
"1 1 1 1 1 1 1 1 1 1 1 7 s s s s s s s s s u d f @.5.r.r.S s u d U j.r.j.j.p.p.r.S s s s s f 2.r.l.t.j.t.t.r.2.U f O.2.r.j.j.r.j.r.j.r.j.r.j.W s s s s ",
"1 1 1 1 1 1 1 1 1 1 1 q s s s s s s s s s s s d f f f x d u u u W t.j.r.j.r.S g d u u x [ 2.r.j.j.r.j.r.j.r.j.r.-.j.t.j.r.j.r.j.d.t.l.t.t.e.S s s s s ",
"1 1 1 1 1 1 1 1 1 1 1 3 0 s s s s s s s s s s s s s u d s s s u U j.r.j.r.e.d W [ E ( 2.p.j.j.r.r.j.r.j.r.j.r.r.j.t.j.r.j.r.j.r.t.t.t.A f d s s s s s ",
"1 1 1 1 1 1 1 1 1 1 1 1 6 s s s s s s s s s s s s s u s s s s s f [ j.r.r.e.[ e.p.j.j.j.p.j.r.j.j.r.j.r.j.r.r.j.t.j.r.j.t.j.r.2.O.( I d s s s s s s s ",
"1 1 1 1 1 1 1 1 1 1 1 1 6 s u s u s s s s s s s s s s s s s s s u x t.j.j.j.t.j.j.p.r.r.j.r.j.r.r.j.r.j.r.j.j.r.j.r.j.r.j.t.O.d s s s s s s s s s s s ",
"1 1 1 1 1 1 1 1 1 1 1 1 6 a s s s s s s s s s s s u s s s s s s s x r.j.r.j.r.j.r.j.r.j.j.r.j.r.j.r.j.r.r.j.r.j.j.r.j.r.t.j.U s s s s s s s s s s s y ",
"1 1 1 1 1 1 1 1 1 1 1 1 6 u s s s s s s s s s s s s s s s s u s d U j.r.j.r.j.r.j.r.j.r.r.j.r.j.r.j.r.j.j.r.j.r.r.j.r.j.r.5.f s s s s s s s s s s s s ",
"1 1 1 1 1 1 1 1 1 1 3 6 0 d s s s s s s s s s s s s s s s s s u H j.r.j.r.j.r.j.r.j.j.r.e.j.j.r.j.r.j.r.r.j.r.j.j.2.U x f d d u s s s s s s s s s s s ",
"1 1 1 1 1 1 1 1 1 1 i r.r.*.d u s s s s s s u s s s s s s s s u W t.j.r.j.r.j.r.j.r.r.U B r.r.j.r.j.r.j.j.r.j.t.0.f u s s s s u s s s s s s s s s s s ",
"1 1 1 1 1 1 1 1 1 1 a j.j.-.d s s s s s s s s s s s s s s s s u I j.t.j.t.j.r.j.r.u.U s S j.j.y.p.j.r.j.j.r.j.t.@.s s s s s s s s s s s s s s s s s s ",
"1 1 1 1 1 1 1 1 1 1 a j.r.j.[ s s s s s s s s s s s s s s s s u U u.j.t.j.r.j.r.j.U s s x p.p.y.j.e.j.r.r.j.r.j.[ s s s s s s s s s s s s s s s s s s ",
"1 1 1 1 1 1 1 1 1 1 a l.j.t.5.d s s s u s s s s s s s s s s u u W d.d.j.r.j.r.j.t.S y u x p.j.j.r.j.r.j.j.r.j.t.[ s s s s s s s s s s s s s s s s s s ",
"1 1 1 1 1 1 1 1 1 r [ j.r.j.5.s s s s s s s s s u s s s s s s s s ( j.t.j.r.j.r.( s s u x p.y.p.j.r.j.r.r.j.r.j.@.s s s s s s s s s s s s s s s s s s ",
"q n t 1 < 1 1 1 1 d l.g.e.j.2.d s s s s s s s s s s s s s s s s u d U j.r.r.j.r.f s s u x r.j.j.r.j.t.j.t.j.j.r.5.x s u s s s s s s s s s s s s s e 9 ",
"q a a p i 1 1 1 0 ( g.g.j.e.S s s s s s u s s s s s s s s s s s u u f ( u.j.r.j.[ f s f @.j.e.U I W U U U @.r.j.j.2.d s s s s s s s s s s s s s y 3 1 ",
"1 < q g.5.t 1 1 V l.g.g.5.H s s s u s s s s s s s s s s s s s s u s u f e.r.j.r.t.O.f f E [ U s s u u u f @.j.r.t.r.( d s s s s s s s s s s s s y 3 1 ",
"1 < q w.j.0.i q _ p.p.0.H s s s s s s s s s s s s s s s s s s s s s u f p.j.r.j.j.t.W u s s s s s s s s S 5.r.j.t.j.2.d s s s s s s s s s s s 0 7 3 1 ",
"1 1 q g.g.p.p.p.f.y.f.E s s s s s s s s s s s s s s s s s s s s s s u f p.j.r.j.r.j.W s s s s s s s s s s U d.t.j.t.5.x s u s s s s s s s s s 9 1 1 1 ",
"1 1 6 $.g.g.p.p.f.y.y.H s s s s s s s s s s u s s s s s s s s s s s u f r.r.j.r.j.r.S u s s s s s s s s s H u.j.r.j.j.e.f s s s s s s s s s s y 3 1 1 ",
"1 1 1 q 0.r.p.p.f.y.U s s u s s s s s s s s s s s s s s s s u s s s u f p.j.r.j.r.j.U s s s s s s s s s s s W t.j.r.j.p.f u s s s s s s s s s 0 3 6 t ",
"1 1 1 6 0.j.p.p.f.U s s s u s s s s s s s s s s s s s s s s s s s s u f r.r.j.r.j.r.j.U s s s s s s s s s s W t.r.j.r.t.A d s s s s s s s s 9 3 1 e s ",
"1 1 1 6 0.r.j.r.H s s s e 7 s s s s s s s s s s s s s s s s s s s s s f r.j.r.j.r.j.d.( s s s s s s s s s u A l.r.j.r.j.r.W s s s s s s s s w 9 0 u t ",
"1 1 1 6 0.j.r.A s u s e 4 5 s s s s s s s s s s s s s u s s s u s s s f r.p.j.r.j.r.( s s s s s s s s s s u A t.j.r.j.r.j.[ d s s s s s s s s s s s y ",
"1 1 1 6 0.j.j.[ f u e 5 1 4 6 6 7 y s s s s s s s s s s s s s s s s f @.p.j.r.j.r.j.W s s s s s s s s s s s d x x x A r.j.t.U f d s s s s s s s s s s ",
"1 1 1 6 0.p.p.l.g u 8 < 1 < < < 4 6 7 t s s s s s s s s s s s s s u f t.j.r.j.r.j.[ f y s s s s s s s s s s s u u u d A 0.j.r.2.d s s s s s s s s s u ",
"1 1 1 6 0.p.p.p.[ f q < 1 1 1 1 1 < 4 e s u s s s s s s s s s s u u f j.r.j.p.p.O.d y f W x s s s s s s s s s u u u s d e.t.j.e.f u s u s s s s s s s ",
"1 1 1 q 0.p.p.p.l.[ w 1 1 1 1 1 1 1 < 6 t s s s s s s s s s s s s u f O.r.r.j.j.f s s H j.2.x d s s s s s s s f f s s s U e.t.e.f s s s s s s s s s s ",
"1 1 < 6 0.g.g.g.r.l.i < 1 1 1 1 1 1 1 1 w s s s s s s s s s s s s s u f t.j.p.@.f s s W j.t.2.s u u u u s s u x 2.f s s s @.j.r.f s s s s s s s s u s ",
"1 1 1 6 0.g.| 0.j.p.d 5 1 1 1 1 1 1 1 1 0 s s s s s s s s s s s s s s f -.p.r.f s s s x 2.j.e.f f f f f s u u x j.2.s s f 2.t.j.[ d s s s s s s s s s ",
"1 1 1 w 0._ 6 V 0.g.g.a 1 1 1 1 1 1 1 1 w s s s s s s s s s s s s s s s f e.r.f s s s s x e.j.p.r.r.e.r.U s u x j.0.f d 2.j.t.j.j.1.f s s s s s s s s ",
"1 1 q ,._ 6 1 5 C l.g.d 1 1 1 1 1 < 1 1 w s s s s s s s s s s s s s s s d 5.r.x s s s s s x r.t.e.e.e.p.p.U y x r.t.2.f 2.t.j.t.t.1.f s s s s s s s s ",
"1 1 q W 6 1 1 1 n g.g.0.d 1 1 1 < 4 < 4 0 s s s s s s s s s s s u s s s f e.j.2.f s s s s f r.e.f f s [ j.U s x j.r.j.5.r.j.t.j.e.f s s s s s s s s s ",
"1 1 3 6 < 1 1 1 5 V g.g.V 1 1 1 < 4 < 0 y s s s s s s s s s s s s s s s d r.r.j.5.x s s s f r.e.d s s f [ e.W x r.j.t.j.t.r.j.r.e.f s s s s s s s u e ",
"1 1 1 1 1 1 1 1 1 6 V l.n 1 1 1 1 1 1 e s s s s s s y 7 t y s s s s s s f e.t.j.j.x u s u f p.5.d s s s f f U 2.j.r.j.r.j.r.j.r.r.f a s s s s s d y 5 ",
"1 1 1 1 1 1 1 1 1 < a l.V 1 1 1 1 1 1 e s s s s s s t 4 6 y s s s s s s d e.j.r.( d s s d f p.e.d s s s u u f x U j.r.j.r.j.r.j.g.-.d t e 0 w w 0 7 1 ",
"1 1 1 1 1 1 1 1 1 1 a 0.y 1 1 1 1 1 7 y s s s s s s y 4 1 6 y y s s s s f 5.r.j.x u s s u f r.S s s s s s s s u d ! r.t.r.j.j.t.l.l.p 3 1 1 1 1 1 1 1 ",
"1 1 1 1 1 1 1 1 1 1 q a 0 1 1 1 1 1 e e 8 0 t s s s t 4 1 1 e s s s s s W e.j.r.f u s s u d W s s s s s s s s u u d r.j.j.r.j.-.W ! t 1 1 1 1 1 1 1 1 ",
"1 1 1 1 1 1 1 1 1 1 1 7 w 1 1 1 1 6 t 6 1 1 5 t s s y 4 1 1 w s s s u f e.j.t.j.f s s s s s s s s s s s s s s s u f 0.j.r.j.r.q 1 3 1 1 1 1 1 1 1 1 1 ",
"1 1 1 1 1 1 1 1 1 1 1 7 w 1 1 5 7 t t 6 1 1 1 5 t y w 3 1 1 w s s s s W r.t.j.-.f s s s s s s s s s s s s s s s u f r.p.j.-.Z 5 1 1 1 1 1 1 1 1 1 1 1 ",
"= , 1 1 1 1 1 1 1 1 3 9 e 1 6 a s s 5 1 1 1 1 1 6 t 3 1 1 1 w s s s g p.r.j.e.f s s s s s s s s s s s s s s s s s x r.p.w.r 1 1 1 1 1 1 1 1 1 1 1 1 1 ",
"% = 1 1 1 1 1 1 1 1 9 d e 6 u s s s 5 1 1 1 1 1 4 e 1 1 1 1 w s s s x r.j.p.2.f s s s s s s s s s s s s s s s u f 5.j.p.0.9 1 1 1 1 1 1 1 1 1 1 1 1 1 ",
"% = 1 1 1 1 1 1 1 1 7 u u y s s s y 3 1 1 1 1 1 1 3 1 1 1 1 w s d x r.r.j.2.f s s s s s s s s s s s s s s s s u f 4.t.d.t.0 1 1 1 1 1 1 1 1 1 1 1 1 1 ",
"% = 1 , * 1 1 1 1 1 3 9 u u s s s 6 1 1 1 1 1 1 1 1 1 1 1 1 w s A 0.r.j.2.f s s s s s s s s s s s s s s u s s s d d f 4.t.! 5 1 1 1 1 1 1 1 1 1 1 1 1 ",
"% = 1 , % * < 1 1 1 1 1 7 s s s s 3 1 1 1 1 1 1 1 1 1 1 1 1 3 s r.-.f f f s s s s s s s s s s s s s s s s s s s s s d f f q 1 1 1 1 1 1 1 1 1 1 1 1 1 ",
"* , 1 , % % , 1 1 1 1 1 6 s s s y 3 1 1 1 1 1 1 1 1 1 1 1 1 1 5 g [ s u s s s s s s s s s s s s s s s s s s s s s s s e 3 1 1 1 1 1 1 1 1 1 1 1 1 1 1 ",
", 1 1 , * % 1 1 1 1 1 1 3 0 s s y 3 1 1 1 1 1 1 1 1 1 1 1 1 1 1 6 0 0 s s s s u s s s s s s s s s s s s s s s s s s s y 3 1 1 1 1 1 1 1 1 1 1 1 1 1 1 ",
"1 1 1 * % - 1 1 1 1 1 1 1 3 0 s u 4 1 1 1 1 1 1 1 1 1 1 1 1 1 1 1 1 3 0 u s s s s s s s s s s s s s s s s s s s s s s y 3 1 1 1 1 1 1 1 1 1 1 1 1 1 1 ",
", - * % & 1 1 1 1 1 1 1 1 1 3 u y 3 1 1 1 1 1 1 1 1 1 1 1 1 1 1 1 1 1 4 y s s s s s s s s s s s s s s s s s s s s s s u 3 3 1 1 1 1 1 1 1 1 1 1 1 1 1 ",
"- % % % * , 1 1 1 1 1 1 1 1 3 u y 3 1 1 1 1 1 1 1 1 1 1 1 1 1 1 1 1 1 3 e y s s s s s s s s s s s s s s s u s s s s u e 3 1 1 1 1 1 1 1 1 1 1 1 1 1 1 ",
"- % % % * , 1 1 1 1 1 1 1 1 3 u t 4 1 1 1 1 1 1 1 1 1 1 1 1 1 1 1 1 1 1 3 y s s s s s s s s s s s s s s s s s u s u e 3 1 1 1 1 1 1 1 1 1 1 1 1 1 1 1 ",
"% % % % % % , 1 1 1 1 1 1 1 4 w 3 1 1 1 1 1 1 1 1 1 1 1 1 1 1 1 1 1 1 1 3 y u u s s s s s s u s s s s u s s s u t e 1 1 1 1 1 1 1 1 1 1 1 1 1 1 1 1 1 ",
"% % % % % % 1 1 1 1 1 1 1 1 1 1 1 1 1 1 1 1 1 1 1 1 1 1 1 1 1 1 1 1 1 1 3 y u u s s s s s s s s s s s s s s s e 1 3 1 1 1 1 1 1 1 1 1 1 1 1 1 1 1 1 1 "
};
