/* XPM */
static char *_0ca4de59ba443d4cb7a2b4e46ab1185KnbFKURgtRmiUjy5[] = {
/* columns rows colors chars-per-pixel */
"75 75 147 2 ",
"   c #427291",
".  c #497795",
"X  c #527E9A",
"o  c #56819D",
"O  c #58829D",
"+  c #5F88A2",
"@  c #618BA4",
"#  c #6890A7",
"$  c #6A91A8",
"%  c #6CA8BF",
"&  c #6EA9C0",
"*  c #75AEC3",
"=  c #78AFC4",
"-  c #7BB1C5",
";  c #81A4B7",
":  c #87A9BB",
">  c #8EAEBE",
",  c #84B7C9",
"<  c #86B8CA",
"1  c #8BBBCC",
"2  c #93B2C2",
"3  c #92BFCE",
"4  c #94C0CF",
"5  c #95C1D0",
"6  c #9CC5D3",
"7  c #A1C7D4",
"8  c #ABC6D1",
"9  c #A4C9D6",
"0  c #A9CCD7",
"q  c #A6CBD8",
"w  c #ADCED9",
"e  c #B0CFD9",
"r  c #AFD1DC",
"t  c #B4D2DB",
"y  c #BDD6DE",
"u  c #BFD8DF",
"i  c #B7D6E0",
"p  c #B8D7E0",
"a  c #BCD9E2",
"s  c #C0D8DF",
"d  c #C0DBE4",
"f  c #C3DDE5",
"g  c #C4DEE6",
"h  c #C5DEE6",
"j  c #C4DBE1",
"k  c #C8DDE3",
"l  c #C8DEE4",
"z  c #C9DEE4",
"x  c #C9DFE4",
"c  c #CADFE5",
"v  c #CBDFE5",
"b  c #C9DEE4",
"n  c #CBE0E5",
"m  c #C8E0E7",
"M  c #CBE0E6",
"N  c #CCE0E6",
"B  c #CCE1E6",
"V  c #CDE1E6",
"C  c #CDE1E7",
"Z  c #CEE1E7",
"A  c #CEE2E7",
"S  c #CFE2E7",
"D  c #CDE1E7",
"F  c #C9E1E8",
"G  c #C8E1E8",
"H  c #CBE2E9",
"J  c #CFE2E8",
"K  c #CFE3E8",
"L  c #CCE3EA",
"P  c #CFE4EB",
"I  c #CEE4EA",
"U  c #D0E3E8",
"Y  c #D0E4E8",
"T  c #D1E4E9",
"R  c #D2E4E9",
"E  c #D2E5E9",
"W  c #D1E5EA",
"Q  c #D2E5EA",
"!  c #D3E5EA",
"~  c #D3E6EA",
"^  c #D4E6EA",
"/  c #D4E6EB",
"(  c #D5E6EB",
")  c #D5E7EB",
"_  c #D6E7EB",
"`  c #D1E6EC",
"'  c #D3E7EC",
"]  c #D6E7EC",
"[  c #D3E5EA",
"{  c #D5E8ED",
"}  c #D6E8EC",
"|  c #D7E8EC",
" . c #D7E8ED",
".. c #D5E8EE",
"X. c #D7E9EE",
"o. c #D7E8EC",
"O. c #D8E9ED",
"+. c #D9E9ED",
"@. c #D9EAEE",
"#. c #D8EAEF",
"$. c #DAEAEE",
"%. c #DBEBEE",
"&. c #DBEBEF",
"*. c #DCEBEF",
"=. c #DCECEF",
"-. c #DDECEF",
";. c #DBEBEE",
":. c #DAEBF0",
">. c #DBECF0",
",. c #DCECF0",
"<. c #DDECF0",
"1. c #DDEDF1",
"2. c #DEEDF0",
"3. c #DFEDF1",
"4. c #DFEEF1",
"5. c #DFEEF2",
"6. c #DEEDF0",
"7. c #E0EEF1",
"8. c #E0EFF1",
"9. c #E0EFF2",
"0. c #E1EFF2",
"q. c #E1EFF2",
"w. c #E2F0F2",
"e. c #E3F0F2",
"r. c #E2F0F3",
"t. c #E3F0F3",
"y. c #E3F1F3",
"u. c #E4F1F3",
"i. c #E3F1F4",
"p. c #E4F1F4",
"a. c #E4F2F4",
"s. c #E5F2F4",
"d. c #E5F2F5",
"f. c #E6F2F5",
"g. c #E6F3F5",
"h. c #E7F3F5",
"j. c #E7F3F6",
"k. c #E7F4F6",
"l. c #E5F2F4",
"z. c #E8F4F6",
"x. c #E9F4F6",
"c. c #E9F5F6",
"v. c #E9F5F7",
"b. c #EAF5F7",
"n. c #EBF6F7",
"m. c #E8F4F6",
"M. c #EBF6F8",
/* pixels */
"% % = - , 1 < - & % & & * < 1 1 1 1 1 1 1 1 1 1 1 1 1 1 1 1 1 1 1 1 1 1 1 q q 1 1 1 1 1 1 1 1 1 1 1 1 1 1 1 1 1 1 1 1 1 1 1 1 1 1 1 1 1 1 1 1 1 1 1 1 ",
"% % % % - 1 1 , = = * * < 1 1 1 1 1 1 1 1 1 1 1 1 1 1 1 1 1 1 1 1 1 < 1 < a h 1 1 1 1 1 1 1 1 1 1 1 1 1 1 1 1 1 1 1 1 1 1 1 1 1 1 1 1 1 1 1 1 1 1 1 1 ",
"% % % % = < 1 1 1 1 1 1 1 1 1 1 1 1 1 3 q q 1 1 1 1 1 1 1 1 1 1 1 6 q q q a i 1 1 1 1 1 1 1 1 1 1 1 1 1 1 1 1 1 1 1 1 1 1 1 1 3 1 1 1 1 1 1 1 1 1 1 1 ",
"% % % % & = , , , , 1 1 1 1 1 1 1 1 1 6 ` 1.q 6 6 6 q 6 7 6 6 6 q :.z.j.a.p 1 1 1 1 1 1 1 1 1 1 1 1 1 1 1 1 1 1 1 1 1 1 1 1 1 1 1 1 1 1 1 1 1 1 1 1 1 ",
"% % % * & % & & & * 1 1 1 1 1 1 1 1 1 1 6 ' a.a.a.a.a.a.0.a.a.a.a.k.k.j.a.t 1 1 1 1 1 1 1 1 1 1 1 1 1 1 1 1 1 1 1 1 1 1 1 1 1 1 1 1 1 1 1 1 1 1 1 1 1 ",
"% * , < 1 - & & * < 1 1 1 1 1 1 1 1 1 1 1 6 ..k.k.j.z.z.z.j.z.z.j.k.k.r.i 1 1 1 1 1 1 1 1 1 1 1 1 1 1 1 1 1 1 1 1 1 1 1 1 1 1 1 1 1 1 1 1 1 1 1 1 1 1 ",
", < 1 1 1 1 , < < 1 1 1 1 1 1 1 1 1 1 1 1 1 6 :.M.a.M.z.j.a.M.z.k.M.k.i 1 1 1 1 1 1 1 1 1 1 1 1 1 1 1 1 1 1 1 1 1 1 1 1 1 1 1 1 1 1 1 1 1 1 1 1 1 1 1 ",
"1 1 1 1 1 1 1 1 1 1 1 1 1 1 1 1 1 1 1 1 1 3 F u.a.M.a.M.1.T a.z.j.j.M.q 1 1 1 1 1 1 1 1 1 1 1 1 1 1 1 1 1 1 1 1 1 1 1 1 1 1 1 1 1 1 1 1 1 1 1 1 1 1 1 ",
"1 1 1 1 1 1 1 1 1 1 1 1 1 1 1 1 1 1 < 6 G I a.v.s.c.%.n k j Y s.k.a.M.] J q 1 1 1 1 1 1 1 1 1 1 1 1 1 1 1 1 1 1 1 1 1 1 1 1 1 1 1 1 1 1 1 1 1 1 1 1 1 ",
"1 1 1 1 1 1 1 1 1 1 1 1 1 1 1 1 1 1 6 F k.v.v.v.c.%.k s y s j Y a.M.a.M.n.| h t 1 1 1 1 1 1 1 1 1 1 1 1 1 1 1 1 1 1 1 q h h h a 4 1 1 1 1 1 1 1 1 1 1 ",
"1 1 1 1 1 1 1 1 1 1 q 9 3 1 1 9 a a G k.k.v.k.g y 0 7 7 e s s j ! a.M.a.z.n.n.*.a a a i 3 1 1 1 1 1 1 1 1 9 0 0 t a a ` v.v.v.<.4 1 1 1 1 1 1 1 1 1 1 ",
"1 1 1 1 1 1 1 1 1 0 s s 0 7 7 d y.M.c.k.a.g a 5 < 4 < 4 4 e s y d ! O.a.z.z.z.z.M.v.v.a.6 1 1 1 1 3 7 7 9 y s d R O.O.| 1.z.M.<.4 1 1 1 1 1 1 1 1 1 1 ",
"1 1 1 1 1 1 3 6 9 s y e w e e w p G G G a 4 < < < < 4 < 4 4 0 y s s s T 0.b.b.z.a.z.z.u.w 6 6 6 6 0 s s s s s s s s s y z O.0.O.4 1 1 1 1 1 1 1 1 1 1 ",
"1 1 1 1 1 3 0 u s s y 6 1 1 1 1 1 1 1 4 1 < 4 < 4 < 4 < 4 6 6 y s s s s R u.b.n.z.z.0.*.j s s s s s s s s s s s s s s s s s z ! 4 1 1 1 1 1 1 1 1 1 1 ",
"1 3 4 4 4 0 s s s s s y 7 1 1 1 1 1 1 1 1 1 < 4 < 4 < < 6 y y s s s s s s R 7.0.0.*.s s s s s s s s s s s s s s s s s s s s s y 5 1 1 1 1 1 1 1 1 1 1 ",
"1 w y y y y s s s s s s y 5 1 1 1 1 1 1 1 1 < 4 < < 4 < 6 y j s s s s s s d s s j d s s s s s s s s s s s s s s s s s s s s s y y 4 1 1 1 1 1 1 1 1 1 ",
"1 4 t y y y y y u u s u u 5 1 1 1 1 1 1 1 1 1 1 , 4 , 4 5 y s s s s s s s s s s s s s s s s s s s s s s s s s s s s s s s s s s y 4 1 1 1 1 1 1 1 1 1 ",
"1 1 4 4 3 4 4 3 4 6 y u y y 6 1 1 1 1 1 1 1 1 1 4 < 4 4 y y s s s s s s s s s s s s s s u s s s s s s s s s s s s s s s s s s s u y 4 1 1 1 1 1 1 1 1 ",
"1 1 1 1 1 1 1 < 1 1 5 5 5 y t t 8 1 1 1 1 1 1 1 4 , 4 7 y y u s s s s s s s s s s s s s s s s s s s s s s s s s s s s s s s s s s s t t 6 1 1 1 1 1 1 ",
"1 1 1 1 1 1 1 1 1 1 1 1 1 5 6 e t e e 9 4 1 1 1 4 6 w t y j s s s s s s s s s y s s s s s s s s s s s s s s s s s s s s s s s s s s s s t e e e w e e ",
"1 1 1 1 1 1 1 1 1 1 1 1 1 1 < 0 j s s u 9 0 0 0 0 y y s s s s s s s s s s s s s s s s s s s s s s s s s s s s s s s s s s s s s s s s s s s s s s s s ",
"1 1 1 1 1 1 1 1 1 1 1 1 1 1 1 0 s s s s s s s s s s s s s s s s s s s s s s s s s s s u s s s s s s s s s s s s s s s s s s s s s s s s s s s s s s s ",
"1 1 1 1 1 1 1 1 1 1 1 1 1 1 5 t s s s s s s s s s s s s s s s s s s s s s s s s s s s s s s s u s s s s s s s s s s s s s s s s s s s s s s s s s s s ",
"1 1 1 1 1 1 1 1 1 1 1 1 1 5 t s s s s s s s s s s s s s s s s s s s s s s s s s s s s s s s s s s s s v s s s s s s s s s s s s s s s s s s s s s s s ",
"1 1 1 1 1 1 1 1 1 1 1 4 5 t s s s s s s s s s s s s s s s s s s s s s s s s s s s s s s s s s s u u Z -.s s s s s s s s s s s s s s s s s s s s s s s ",
"1 1 1 1 1 1 1 1 1 1 1 r t u s s s s s s s s s s s s s s s s s s s s s s s s s s s s s s s s s s u u Z 0.b s s s s s s s s s s s s s s s s s s s s s s ",
"1 1 1 1 1 1 1 1 1 1 1 3 4 0 y t y y y s s s s s s s s s s s s s s s s s s s u s s u s s s s s s s u Z a.0.b j s s s s s s s s s s s y y t y y u s s s ",
"1 1 1 1 1 1 1 1 1 1 1 1 < 4 4 4 4 4 7 u s s s s s s s s s s s s s s s s s s s s s s s s s s s s s u n u.k.y.0.z s s j s s s s s s s 7 3 3 3 8 y s s s ",
"1 1 1 1 1 1 1 1 1 1 1 1 1 1 1 1 < 6 y y s s s s s s s s s s s s s s s s s s s s s s s s s s s s s s s Z a.v.v.0.0.0.S s s s s s s s t t 6 1 1 9 y s s ",
"1 1 1 1 1 1 1 1 1 1 1 1 1 1 1 1 6 t s s s s s s s s s s s s s s s s s s s s s s s s s s s u s s s s s s Z a.z.z.z.v.0.1.! s s s s s s s 7 1 1 3 5 7 y ",
"1 1 1 1 1 1 1 1 4 w w w w e e e t s s s s s s s s s s s s s s s s s y s s s s s s s s s s s s s s u s s k u.a.! Z Z Z S b s s s s s s s 7 1 1 1 1 1 6 ",
"1 1 1 1 1 1 1 6 u u s s s s u s s s s s s s s s y s s s s s s s s s s s s s s s u u u u u s s s s u u k O.v.a.k s s s s s s s s s s s s 7 < 1 1 1 1 1 ",
"1 1 1 1 1 1 6 n u.! s s s s s s s s s s s s s s s s u u s s s s s s s s s s u k ! ! ! ! ^ s s s b ^ Y +.z.z.h._ k s s s s s s s s s s s t 5 1 1 1 1 1 ",
"1 1 1 1 1 1 q O.-.u.! s s s s s s u s s s s s s s s u u s s s s s s s s s u k ! h.v.v.h.h.+.S Y +.v.v.v.z.z.z.z.n y s s s s s s s s s s s 9 1 1 1 1 1 ",
"1 1 1 1 1 3 0 s z k.u.Z v j y s s s s s s s s s u k n Z k u s s s u u u y k } k.v.h.v.h.v.h.v.h.h.v.h.v.z.z.v.a.! s s s s s s s s s s s s e 3 1 1 1 1 ",
"1 1 1 5 5 q s s z a.v.v.u.! b j u s s s s s s b b O.v.k.-.b b b b b b b k O.k.v.h.v.h.v.h.v.h.v.v.h.v.h.z.z.v.z.v.! j s s s s s s s s s s s e 4 3 1 1 ",
"3 3 3 w y s s s b y.z.z.a.z.a.! k j k j k j b 1.v.a.v.v.v.u.s.s.z.a.z.a.a.a.v.z.v.h.v.h.v.h.v.h.h.v.v.v.a.v.z.z.z.z.+.s s s s s s s s s s s s y t 3 3 ",
"y y y s s s s s s b 0.z.v.v.v.z.y.y.a.a.a.u.u.k.v.h.z.z.h.v.v.v.z.z.z.z.v.v.z.z.h.v.h.v.h.v.h.v.u.u.u.v.z.v.z.z.z.z.z._ j j j s s s s s s s s s y y y ",
"s s y s s s s s s s b y.a.v.v.k.z.z.z.z.v.a.v.u.z.z.z.z.v.h.v.h.z.z.z.z.z.v.z.z.v.h.v.h.v.h.v.h.O.k S v.z.z.z.z.z.z.z.u.y.0.*.j d *.b s s s s s s s s ",
"s s s s s s s s s y s k b 0.a.k.z.z.z.z.u.z b b -.z.z.z.h.v.h.v.z.z.z.z.z.v.a.z.h.v.h.v.h.v.h.v.u.! Z u.z.z.z.z.z.z.z.z.z.v.h.7.0.u.b s s s s s s s s ",
"s s s s s s s s s s s s s b Z n z ..v.y.z s s s b b *.v.v.h.v.h.z.z.z.z.z.O.v ! v.v.v.h.v.h.v.h.v.+.k ! h.v.v.h.z.z.v.h.v.h.v.h.z.h.b y s s s s s s s ",
"s s s s s s s s u s s s s y u s y k Z Z s s s s s s k O.h.v.h.v.z.z.z.z.+.k s j S ! h.v.h.v.h.v.v.+.u s Y s.h.v.z.z.h.v.h.v.h.v.z.z.*.b s s s s s s s ",
"s s s s s s s s s s s s s s s s s s s y s s s s s s y b ! O.v.h.! R ! ! b y s s s s ^ u.v.h.h.v.h.+.s s b u.v.h.v.v.v.h.v.v.u.+.z.z.z.*.b s s s s s s ",
"s s s s s s s s s s s s s s s s s s s s s s s Z Y Y b u s s +.! j s s s b b s s s s s ! s.h.v.h.k.8.S s s ! } } ! +.} } } +.! s ! h.z.z.O.b y s s s s ",
"s s s s s s s s s s s s s s s y y s s d u s Z u.v.v.^ s s s s s s s s s O.*.S Z S S Z Z u.v.h.v.v.v.-.s s s s s s s s s s s s s s _ z.z.z.*.j s s s s ",
"s s s s s s s s s s s s s s s k Z v v v z Z u.v.z.0.Z s s s s s s s s s O.v.z.z.v.v.v.h.v.h.v.h.s.v.-.n s s s s s s s s s s s s s s 7.b.z.z.*.b s s s ",
"s s s s s y s s s s s s s s s ! u.a.z.a.z.z.k.y.0.Z s s s s s s s s s s ! a.v.z.h.v.h.v.h.v.h.v.v.v.v.8.b u s s s s s s s s s s s s O.0.a.z.z.*.j s s ",
"s s s s s s s s s s s s u s s s ! u.u.0.u.v.a.z d s s s s s s s s s s s s ! v.v.v.h.v.h.v.h.v.h.h.s.v.k.7.b s s s s s s s s s s s s d j | u.z.v.! s s ",
"s s s s s s s s s s s s s s s s s j j j b u.a.z s s s s s s s s s s s s s ^ z.z.h.v.h.v.h.v.h.v.v.h.v.h.z.0.b s y s s s s s s s s s s s j j T 0.v y s ",
"s s s s s s s s s s d y s s s s s s s s k u.v.z s s s s s s s s s s s s s ^ b.z.v.h.v.h.v.h.v.h.h.v.h.v.z.z.7.b s s s s s s s s s s s s s s j j j j s ",
"s s s s s s s s s s s s s s s s s s s s k u.a.z u s s s s s s s s s s s s ^ n.h.h.v.h.v.h.v.h.v.v.h.v.h.z.z.v.0.0.v s s s s s s s s s s s s s s s s s ",
"s s s s s s s s s s s s s s s s s s s k O.v.a.z u s s s s s s s s s s s s ! h.v.v.h.v.h.v.h.v.h.h.v.h.v.z.z.v.a.z.0.*.S s s s s s s s s s s s s s s s ",
"s s s s s s s s s s s s s s s s s s b O.v.h.! d s s s s s s s s s s s S b ^ h.h.h.v.h.v.h.v.h.v.v.h.s.v.u.! y.v.z.z.v.O.s s s s s s s s s s s s s s s ",
"s s s s s s s s s s s s s s s s s s v u.! ^ s s s s s s s s s y s S ! u.*.7.h.v.v.h.v.h.v.h.v.h.h.v.v.u.Y k y.v.z.v.v.! s s s s s s s s s s s s s s s ",
"s s s s s s s s s s s s s s s s s j ^ ^ s s y u u u u s j ! ! Y ! u.v.v.h.v.h.v.h.v.h.v.h.v.h.v.v.h.v.7.s k y.v.z.z.v.} s s s s s s s s s s s s s k ! ",
"e y s s s s s s s s s y s s s s s S 7.Z n Z Z Z Z k u y Z v.a.v.v.z.z.v.v.h.v.h.v.h.v.h.v.h.v.h.h.v.u.} s j } a.v.v.y.S s s s s s s s s s s s j ! 0.a.",
"3 t s s s s s s s s z z j s s s j _ v.z.z.z.z.z.7.v s s Z z.z.z.z.z.z.z.z.z.0.*.O.O.-.u.v.v.h.v.z.z.7.b s s j O.7.-.S s s s s s s s s s s s j O.z.z.a.",
"1 e y s s s s s s j u.a.v b b j ! z.v.z.z.z.u.u.n s s s Z z.z.z.z.z.z.v.a.0.Z s s s s n 0.v.v.h.z.z.v.-.s s s s s s s s s s s s s s s s s s | z.z.z.z.",
"1 3 w s s s d s s v a.z.z.a.a.a.h.z.z.z.z.0.b s s s s d ! v.z.z.z.v.u.0._ j j s s s s s ! v.u.v.z.z.z.0.k s s s s s s s s s s s s s s j j T z.z.z.z.z.",
"1 1 3 e y y y t z u.z.z.z.z.z.z.z.z.z.z.u.b s s s s s ! u.a.v.a.a.u.Z j s s s s s s s y Z v.v.v.z.z.h.h.7.d s s s s s s s s s s s s s | 0.a.z.z.z.z.z.",
"1 1 1 3 5 3 4 3 g M.a.a.a.z.z.z.z.z.z.z.h.0.-.b s ! u.u.k.v.a.! b b s s s s s s s s s s v h.z.v.z.z.z.z.0.j s s s s s s s s s s s s s j k | h.z.z.z.z.",
"1 1 1 1 1 1 1 1 q ` q 7 q 0.z.z.z.z.z.z.z.z.v.7.7.u.z.v.v.O.! j s s s s s s s s s s s s k 0.z.v.z.z.z.z.h.*.j s s s s s s s s s s s s s s k ! h.z.z.z.",
"1 1 1 1 1 1 1 1 3 3 1 1 3 ` z.z.z.z.z.z.z.z.z.z.v.v.z.z.! k u s s s s s s s s s s s s s s b ! 7.a.z.z.z.z.z.-.O.Z k b j s s s s s s s s s s k _ b.z.v.",
"1 1 1 1 1 1 1 1 1 1 1 1 1 5 q <.z.z.z.z.z.z.z.z.z.u.u.0.k u s s s s s s s s s s s s s s s s s s 0.z.z.z.z.v.v.v.a.u.u.1.S s s s s s s s s s s k v R R ",
"1 1 1 1 1 1 1 1 1 1 1 1 1 1 1 ] M.v.a.a.u.v.z.*.v b j j s s s s s s s s s s s s s s s s s s s s *.b.z.z.z.z.z.z.z.z.z.z.*.s s s s s s s s s 8 ; + X o ",
"1 1 1 1 1 1 1 1 1 1 1 1 1 1 3 ] v.1.b b b 7.0.s s s s s s s s s s s s s s s s s s s s s s s s s _ z.z.z.z.z.z.z.z.z.z.z.u.v s s s s s s y > X         ",
"1 1 1 1 1 1 1 1 1 1 1 1 1 1 3 e y d s s s b b s s s s s s s s s s s s s s s s s s s s s s s s s _ z.z.z.z.z.z.z.z.z.z.z.z.0.j s s s 8 : $ .     .     ",
"1 1 1 1 1 1 1 1 1 1 1 1 1 1 1 < 3 t s s s s s s s s s s s s s s s s s s s s s s s s s s s s s s j S z.z.z.z.z.z.z.z.z.z.z.z.S s s 2 X                 ",
"1 1 1 1 1 1 1 1 1 1 1 1 1 1 1 1 1 t s s s s s s s s s s s s s s s s s s s s s s s s s s s s s s s k u.z.z.z.z.z.z.z.z.z.z.b.*.s 8 O                   ",
"1 1 1 1 1 1 1 1 1 1 1 1 1 1 1 1 1 0 s s s s s s s s s s s s s s s s s s s s s s s s s s s s s s s k 0.b.z.z.z.z.z.z.z.z.z.z.0.k ;                     ",
"1 1 1 1 1 1 1 1 1 1 1 1 1 1 1 1 1 0 s s s s s s s s s s s s e 0 s s s s s s s s s s s s s s s s s s R ! R 0.z.z.z.z.z.z.z.z.z.k $                     ",
"1 1 1 1 1 1 1 1 1 1 1 1 1 1 1 1 1 w s s s s s s s s s s s s 9 3 0 t 0 w s s s s s s s s s s s s s s s s s -.z.z.z.z.z.z.z.z.h.k @                     ",
"1 1 1 1 1 1 1 1 1 1 1 1 1 1 1 1 1 w j s s s s s s s s s s s 0 1 1 3 1 7 y t j s s s s s s s s s s s s s s S ! 1.z.z.z.z.z.z.z.s @                     ",
"1 1 1 1 1 1 1 1 1 1 1 1 1 1 1 1 1 9 t j s s s s s s s s s s y e 7 1 1 3 3 3 e s s s s s s s s s s s s s s s s S z.z.z.z.z.z.z.v @               .     ",
"1 1 1 1 1 1 1 1 1 1 1 1 1 1 1 1 1 1 3 e s s s s s s s s s t t j e 3 1 1 1 1 9 s s s s s s s s s s s s s s s s S z.z.z.z.z.z.z.k O                   . "
};
