/* XPM */
static char *c57a6d6b8d514dd883fc89645bea2061nk43DlTd4Q3Q6k0g[] = {
/* columns rows colors chars-per-pixel */
"48 48 128 2 ",
"   c None",
".  c #0F0906",
"X  c #140B07",
"o  c #150B07",
"O  c #110A0D",
"+  c #160D0E",
"@  c #2A180F",
"#  c #231416",
"$  c #291810",
"%  c #2F1B12",
"&  c #341D13",
"*  c #331E15",
"=  c #342117",
"-  c #392015",
";  c #3E2316",
":  c #3A2318",
">  c #3B2418",
",  c #402518",
"<  c #442619",
"1  c #452619",
"2  c #452719",
"3  c #40251C",
"4  c #45281A",
"5  c #45291B",
"6  c #45291C",
"7  c #462A1D",
"8  c #4E2B1B",
"9  c #4C2C1D",
"0  c #512E1F",
"q  c #57301F",
"w  c #462B24",
"e  c #4B3828",
"r  c #523121",
"t  c #533222",
"y  c #553323",
"u  c #5C3321",
"i  c #5F3522",
"p  c #583424",
"a  c #583524",
"s  c #593524",
"d  c #5A3624",
"f  c #5E3826",
"g  c #5E3928",
"h  c #5B3F2C",
"j  c #543F30",
"k  c #603624",
"l  c #603724",
"z  c #623724",
"x  c #623825",
"c  c #623B28",
"v  c #643C29",
"b  c #653C29",
"n  c #683C28",
"m  c #683F2B",
"M  c #6B3F2A",
"N  c #54412F",
"B  c #5E4935",
"V  c #6B402B",
"C  c #6C412C",
"Z  c #6D412C",
"A  c #714029",
"S  c #734029",
"D  c #70422C",
"F  c #74432D",
"G  c #71442E",
"H  c #73452F",
"J  c #6C4632",
"K  c #6A4E3E",
"L  c #754630",
"P  c #764730",
"I  c #764731",
"U  c #7A4831",
"Y  c #7B4B33",
"T  c #7D4B34",
"R  c #7E4C34",
"E  c #7D4F3F",
"W  c #71523B",
"Q  c #78563E",
"!  c #7F563C",
"~  c #7C5D47",
"^  c #7C6146",
"/  c #804930",
"(  c #804A31",
")  c #824C33",
"_  c #824F37",
"`  c #875137",
"'  c #885036",
"]  c #855138",
"[  c #875138",
"{  c #885238",
"}  c #8C543A",
"|  c #8D553A",
" . c #8E553A",
".. c #8F553A",
"X. c #8E553B",
"o. c #8F563B",
"O. c #90563B",
"+. c #90573C",
"@. c #91573C",
"#. c #935B3F",
"$. c #935D42",
"%. c #915F44",
"&. c #956448",
"*. c #986549",
"=. c #9E674A",
"-. c #8D6E50",
";. c #9B6E52",
":. c #997459",
">. c #A56F51",
",. c #B68262",
"<. c #B98665",
"1. c #B38F6F",
"2. c #B98E6D",
"3. c #BB9573",
"4. c #C4926F",
"5. c #CA9976",
"6. c #CBA178",
"7. c #C8A17B",
"8. c #CEA37B",
"9. c #D4A981",
"0. c #D1AA86",
"q. c #DFB58C",
"w. c #E7BB91",
"e. c #E9BD94",
"r. c #EABF96",
"t. c #EEC29A",
"y. c #EFC49B",
"u. c #F0C59C",
/* pixels */
"                                                                                                ",
"                                                                                                ",
"                                                                                                ",
"                                                                                                ",
"                                                                                                ",
"                                                                                                ",
"                                                                                                ",
"                                                                                                ",
"                                                                                                ",
"                                                                                                ",
"                                                                                                ",
"                                                                                                ",
"                                                                                                ",
"                                                                                                ",
"                                                                                                ",
"                                                                                                ",
"                                                                                                ",
"                                                                                                ",
"                                                                                                ",
"                                                    + d C 3 O                                   ",
"                                                    g *.] Y j                                   ",
"                                                  $ %.1.;.E K                                   ",
"                                                  % &.3.W w #                                   ",
"                                                  r >.e.7.^                                     ",
"                                                  d 4.u.w.-.                                    ",
"                                                  f <.t.q.B                                     ",
"                                                * _ 5.y.9.N                                     ",
"                                                C ,.e.u.8.e                                     ",
"                                              r $.2.:.0.7.N 0                                   ",
"                                            y ` =.~ b Q ] = q @                                 ",
"                                          L o.o.#.J r x k   o                                   ",
"                                        b o.} o.o.{ D ( 4                                       ",
"                                      > { #.H M o.o.O.( &                                       ",
"                                      6 } o.o.b M o.' k o                                       ",
"                                      H L o.O.T 0 ( S ;                                         ",
"                                    L O.k b T c i S 2                                           ",
"                                : L o.D ; 6 Y 4 2 u M                                           ",
"                          . : d C d 4 @   : M 9   & k <                                         ",
"                                                                                                ",
"                                                                                                ",
"                                                                                                ",
"                                                                                                ",
"                                                                                                ",
"                                                                                                ",
"                                                                                                ",
"                                                                                                ",
"                                                                                                ",
"                                                                                                "
};
