/* XPM */
static char *result[] = {
/* columns rows colors chars-per-pixel */
"75 75 52 1 ",
"  c #427291",
". c #497795",
"X c #527E9A",
"o c #56819D",
"O c #58829D",
"+ c #5F88A2",
"@ c #618BA4",
"# c #6890A7",
"$ c #6A91A8",
"% c #6CA8BF",
"& c #6EA9C0",
"* c #75AEC3",
"= c #78AFC4",
"- c #7BB1C5",
"; c #81A4B7",
": c #87A9BB",
"> c #8EAEBE",
", c #84B7C9",
"< c #86B8CA",
"1 c #8BBBCC",
"2 c #93B2C2",
"3 c #92BFCE",
"4 c #94C0CF",
"5 c #95C1D0",
"6 c #9CC5D3",
"7 c #A1C7D4",
"8 c #ABC6D1",
"9 c #A4C9D6",
"0 c #A9CCD7",
"q c #A6CBD8",
"w c #ADCED9",
"e c #B0CFD9",
"r c #AFD1DC",
"t c #B4D2DB",
"y c #BDD6DE",
"u c #BFD8DF",
"i c #B7D6E0",
"p c #B8D7E0",
"a c #BCD9E2",
"s c #C0D8DF",
"d c #C4DBE1",
"f c #C9DEE4",
"g c #CDE1E6",
"h c #CCE2E8",
"j c #D3E5EA",
"k c #D6E8EC",
"l c #DAEAEE",
"z c #DEEDF0",
"x c #E1EFF2",
"c c #E5F2F4",
"v c #E8F4F6",
"b c #EBF6F8",
/* pixels */
".         +fvvvvvvvgsssssssssssssssse11311edesssssssssse3111111111111111111",
"      .   @gvvvvvvvgsssssssssssssssst333117eydssssssssssy711111111111111111",
"          +dcvvvvvvlkgssssssssssssssuyy713110sssssssssssd011111111111111111",
"          +dcvvvvvvvvxssssssssssssssuss89y039ssssssssssss011111111111111111",
"  .       @fcvvvvvvvvcjjjssssssssussussusss0essssssssssss011111111111111111",
"          ;fcvvvvvvvvvcvcssssssssssssssssssssssssssssssss011111111111111111",
"         O8dlvvvvvcvvvvvcssssssssssssssssssssssssssssssyse31111111111111111",
"        X2uujcvvvvvvvvvvvgssssssssssssssssssssssssssssydde31111111111111111",
"     .$:8usssxvvvvvvvvvvvvkssssssssssssssssssssssssaffdasdae111111111111111",
"    X>yssusssgxvvvvvvvvvvvkssssssssssssssssssssssssdxzfddxvk311111111111111",
"XX@;8ssssssssslbvvvvvvvvvvzssssssssssssssssssssdddfzvvvccbvj111111111111111",
"jjgssssssussssgzcccbvvvvvvxsssssssssssssssssssdxvvcvvvvvbcbzq61111111111111",
"bvvkdssssssssssdffgkzvvvvvczjfssssssssssusssudkvvvbvvvvvvvvvvh3113311111111",
"vvvvkdssssssssssssssslvvvvvvbxdsssssssssssudjlvbvxzxvvvvvvvvvzq7qjq11111111",
"vvvvclfdssssssssssssssxvvvvvvcfssssssssssdfjvvvxxksdzxvvvvvvvvvvvvd33333111",
"vvvvvvxksssssssssssssdzvvvvvvvgsussssssdfcvvvvxjssssdfzvvvvvvvvvbxftysye311",
"vvvvvjssssssssssssssssscvvvvvvjssssssdkxcvvvvvjssssddxbbcbvcccvvvfsssssse31",
"vvvvkssssssssssssssssssxvvvvvvxfssssgxvbvvvvvvgsssgxxvbcvckdfdgcxdssssssse1",
"cvvlssssssssssssjxzksssfzvvvvvvczlllxvvvvvvvvvgssgxbbvcbvksssssfddssssssde3",
"vxjssssssssssssgxvbclsskcvvvvvvvbvvbvvvvvvvvvvgssdgggggfxgssssssussssssssye",
"jfssssssssssssskvvvvcssvvvvvvvvvccbcvvvvvcjgggfssssssssjkssssssssssusssssss",
"ssssssssssssssskvvvvxsjvvvvvvvvvcbcbvzlxjjsssssssssssjkcgssssssssssssssusss",
"ssssssssssssssskvvvvcjcvvvvvvvvvvvbcvjfjsssssssssssdjcblfssssssssssssssssss",
"sssssssssssssssglxvvvvvvvvcvvvvcvvvvvjussssssssssssdcvldsssssssssssssssssss",
"sssssssssssssssssfxxvvvvvvvvvvvvvvvvvjsssssssssssssfccfssssssssssssssssssss",
"sssfsssssssssssssssfxvvvvvvvvvvvvvvvvjsssssssssssssfccdssssssssssusssssssss",
"ssgcjsssssssssssssssscvvvvvvvvvvvcbcvjsssssssssssssfccfssssssssssssssssssss",
"sskvvckssssssssssssssfxvvvvvvvvvvvcbvksssssssssssssgcbxccxkssssssssssssssss",
"ssfxvvcxlsssssssssssssfcvvvvvvvvvvvvvcjssssssssssgxxcbcccvcjsssssssssssssss",
"sssslvvvxssssssssssssssfxvvvcvvvvvvvvbksssssssssgxbbcgfggfgdsssssssssssssss",
"ssssfzbvvksssssssssssssslvvvvvcgggggglksssssssssjbvxfssssssssssssssssssssss",
"sssssslbvvksjkkkkkkkkjssgxvvvvcjsssssfgsssskksssfjjgsssssssssssssssssssssss",
"ssssssflvvckcbvvbvvvvcdsslvvvvvcjsssssfjjjjvvljfsuuusssssssssssssssssssssss",
"sssssssfzvvvcvvbvvvvvvjdulvvvvvvvkjssslvvvvvcvvlfususssfgfuuussssssssssssss",
"ssssssssfcvvcbbcvvvvvvcgdkvvvvvvvvvjglvvvvvvvvvvlfdsusgxvkfgffsssssssssssss",
"ssssssssfcxxvccbvvvvvvvvfjxvvvvvvvvvvvvvvvvvvvvvvvzfffcvvvvvvzffsssssssssss",
"ssssssssfzsszcxcvvvvcvvvgdlvvvvvvvvvvvvvvvvvvvvvvvvcccvvvcvvvvccfssssssssss",
"ytssssssssssdsskcvvvvvvvvcvvvvvvvvvvvvvvvvvvvvvvvvvvcccccccvvvvvxfssssssyyy",
"34tsssssssssssssjvvvvvvvvvvvvvvvvvvvvvccccvcvcvvvvvzfdfsfddjvcvvvxdssuae333",
"1143tssssssssssssjvvvvvvvvvvvvvvvvvvvkfffffffflvvlffssssuuudfjccvvfss033111",
"11113wsssssssssssfjvvvvvvvvvvvvvvvvvlsssssssssffgsysssssuussssggccfs0311111",
"111119ssssssssssssfvvvvvvvlggjvvvvvjsssssssssssssssssssssussssssgczl0111111",
"111114esssssssssssskcvvkjjfusdjjjkjssssssssssssssssssssssssssssssjcf6111111",
"1111117sssssssssuusfcvlsuuussssssssssssssssssssssssssssssssssssssda61111111",
"6111117sssssssgggggjvcfusssssssssssssssssssssssssssssssssstwtwwwew311111111",
"u761117sssssssjzcvvvvcgsssssssssssssssssssssssssssssssssst61111111111111111",
"suy7316ttsssssssgcxcvvcgdsssssssssssssssssssssssssssssssy611111111111111111",
"ssuy83337ssssssssssfxcvcfusssssssssssssssssssssssssssssy7433331111111111111",
"ssssuyyyyysssssssssssdxvfsssssssssssssssssssssssssssssssyyyyte4411111111111",
"ssssssyusyssssssssssssdxgsssssssssssssssssssssssssssssssuusssyew11111111111",
"ssssssssssssssssssssssdxgsssssssssssssssssssssssssssssssususst6411111111111",
"sssssssssssssssssssssssfdsssssssssssssssssssssssssssssssussst41111111111111",
"sssssssssssssssssssssssussssssssssssssssssssssssssssssusssse511111111111111",
"ssssssssssssssssssussssssssssssssssssssssssssssssssysssysss0111111111111111",
"ssssssssussssssssssssssssssssssssssssssssssssssssy00w00ysss0111111111111111",
"weeeeetsssssssssssssssusssssssssssssssssssssssste9111149eeye651111111111111",
"1111116rtssssssssssssssssssssssssssssssssssssus7<<<44--4116eye5531111111111",
"111111144yysssssssssssssssssssssssssssssssssssy644<<<44411146yusy6336333311",
"1111111114ysssssssssssssssssssssssssssssssssss71<<4<4<4-111146ssuyyuyyyyr51",
"1111111113yyssssusssssssssssssssssssddssssssss61<4<<4<4-1111<4ysuuusuuyyaq1",
"11111111114yssssssssssssssssssssslxxxjsssssuaa6<<<4<-4441111145yduusaq55554",
"11111111114kfsssssssssssssssssszxcbcvcgssssu654<4<4<4--411111146aauuq5<54--",
"11111111114lzlfyussssssss06766exbvcbcbcjuuuar5<4<4<<44agggywwe0waaq6414-455",
"11111111114lbvlklljssu97831<116cbbbvvvcckjdaar4<4-45ygcbbvcs770ua64111<5--4",
"11111111114zbbchaaiqq6411111114iaaakbvvvvchaaarqq0ygcvvvhiaq<14qq<111111111",
"11111111114uaggq1111111111111111<14rfkvvvvvkddssglcbcvvh6<1111114<111111111",
"1111111111111111111111111111111111114qhkvvvvhadhkvvvchh5111114-1<<111111114",
"111111111111111111111111111111111111-44qvvvvvhzvcvvch4<411111141<4111111111",
"1111111111111111111111111111111111114<4rvvvvvvvvvvvk64<4111111111111-4114-1",
"111111111111111111111111111111111111<4rccvvvvvvvvvvvk54-1111111111&&*-4--&&",
"111111111111111111111111111111111111<rcvvvcvcvccccxcxk541111114<1**&&&&&&&&",
"11111111111111111111111111111111111<4avvcl66666666q6qzk5111111<<4--1-*%&%%%",
"111111111111111111111111111111111111ta6qq611<1114<4<4q64<<<4<4<414111--&%%%",
"111111111111111111111111111111111111ga1<1<111111<<4<<4<4<4<<<4<***--11-*%%%",
"111111111111111111111111111111111111q64111111111<4<<<<4<4<4<<<*%%&&*14--*%%"
};
