/* XPM */
static char *result[] = {
/* columns rows colors chars-per-pixel */
"75 75 52 1 ",
"  c #427291",
". c #497795",
"X c #527E9A",
"o c #56819D",
"O c #58829D",
"+ c #5F88A2",
"@ c #618BA4",
"# c #6890A7",
"$ c #6A91A8",
"% c #6CA8BF",
"& c #6EA9C0",
"* c #75AEC3",
"= c #78AFC4",
"- c #7BB1C5",
"; c #81A4B7",
": c #87A9BB",
"> c #8EAEBE",
", c #84B7C9",
"< c #86B8CA",
"1 c #8BBBCC",
"2 c #93B2C2",
"3 c #92BFCE",
"4 c #94C0CF",
"5 c #95C1D0",
"6 c #9CC5D3",
"7 c #A1C7D4",
"8 c #ABC6D1",
"9 c #A4C9D6",
"0 c #A9CCD7",
"q c #A6CBD8",
"w c #ADCED9",
"e c #B0CFD9",
"r c #AFD1DC",
"t c #B4D2DB",
"y c #BDD6DE",
"u c #BFD8DF",
"i c #B7D6E0",
"p c #B8D7E0",
"a c #BCD9E2",
"s c #C0D8DF",
"d c #C4DBE1",
"f c #C9DEE4",
"g c #CDE1E6",
"h c #CCE2E8",
"j c #D3E5EA",
"k c #D6E8EC",
"l c #DAEAEE",
"z c #DEEDF0",
"x c #E1EFF2",
"c c #E5F2F4",
"v c #E8F4F6",
"b c #EBF6F8",
/* pixels */
"1111111111111111133esssssssssssssssssy31111111111111111111<1111111111&%%%&%",
"11111111111111111etysssssssssssssssssy311111111111111111114w4<1111111&&&%%%",
"1111111111111113eyssssssssssssssssysyy31111111111111111114ry511111111-*&&&*",
"111111111111113wssssssssssssssssssssssw3111111111111111114yy511111111-*&%&*",
"111111111111115yssssssssssssssssssssssy4<111111111111111<4yy4111111141&&*--",
"111111111111113ysssssssssssssssssssssssw4<11111111111111<4yu04111111<-&--41",
"111111111111114yssssssssssssssssssssssss0r6<114<1111111114yuu04<1111-*&-34-",
"111111111111114tsssssssssssssssssssssssyulh611<<1111111114usss611113-&&44--",
"1111111111111wdfssssssssssssssssssssssffflcs4<441111111114yuus91<<41<*&-1*%",
"1111111111115jvcgssssssssssssssssssssfxcvcjse<<<1111111116yuuss044<1<<--1*%",
"111111111111<rcvccgsssssssssssssssssdccbcjsse<11131111115yuusyuyq-1141<11*%",
"111111111111<6cvvcfssssssssssssssssfccbcgssse1113e4111116uuuy6esq111<14<1-&",
"1111111111113qvvcgsssssssssssssssssfcbbcgusse1<13t6111115ysy61t04<1111111<-",
"111111111116hzvvcdssssssssssssssssfzbccjsssse1<4wyt41115ty6511w71<11111111<",
"11111111141qcbvvcfsssssssssyssssssgccccfsssse<44ysst5116y51111e7<4111111111",
"11111111rkkzvvvvcdssssssssssjdsssyfbbckdssssw<<4yssse00et11111wdq1111111111",
"11111113sbcbcbcvcksssssssssjcfusssgvvxssssssy6<4tssssssy711111yxp4<<<4<4<<<",
"16www9ttszbcbcbcvvkgfsssssfcvfsssskvvcgsssssut64ysssssse111111gbi4<4<<4-<44",
"5pdssssssfcvcbcbvvvxjfsssssxvfsssgvcvcgyssssusy6ysssssse1111<<gvh5<<44<4<4<",
"raassssssfcvbcbcvvvgjczfssscvgsssgcvccsssssssssusssssyy0111144gvvh54<<<63-4",
"sssssssssfccbccxvvvgsjvlsffccfysssgcvcdsssssssssssssss031111<<acvvh<-46jq41",
"ssssssssfzbvcbxfxvvgsjvvcccccgssssygccgyssssssssssssss011111<44hbbh446kzq-1",
"ssssssssgxvvbczffxvgssjccbccbcgsssudccfsssssssssssssss01111111-abvch6kcr4<1",
"sssssssssslvvxfssxbgsssfffffcccgusugccxdssssssssssssss0111111145avvclvc6<41",
"sssssssssyfcbzsssgxjsssysyssxcbjusflvvvfsssssssssssuuue<11111111tvvvvvc6-44",
"ssssssssssfcbxjsssgsssssssssgxbjsygvvvvldssssssssssssuy711111111wkvvvvc644-",
"ssssssssssfxcbxssssssssssssssgjfyslvvvvvgussssssssssssse<411111<9gkvvvc6<44",
"ssssssssssfxbccjssssssssssssssssflbbvvvvgsssssssssssssst661111119uhvvvc64--",
"sssssssssssdkcccjggjssssssssssssjvcvvvcldssssssssssssssssy766414rygzvvv6<44",
"ysssssssssssflbbbccvjssssssssssdlvvvvvcgusssssssssssssssusssy54ruaugcvc64--",
"ty09essssssssjxccvvvjsssssssssskvvvvvvcfusssssssssssssssssssu6ryahhvvvx6<<4",
"se130ssssssssdjcbcvvjssssssssssjcvvvvbcfusssssusssssssssussssyyuahvvvvc544<",
"t610sssssssssufcvvvvjssssssssssskvvvvvcfsssssssssssssssssssssssskcccbccq44<",
"1<4ussssssssssfcvvvvcjsssssssssujvvvvvcfsssssssssssssssssssssssjcbcbcbcz6<4",
"1110ussssssssssjcvvvvjssssssssssjvvvvvcfsssssssssssssssssssssuskbccbccccq<-",
"<470usssssssssssxvvvvcgssssssssyjvvvvvcfsssssssssssssssssssssujccbkqicbcq<4",
"14tsssssssssssssjvvvvzfsssssjjlfslvvvvcfsssssssssssssssssssssjcccbh<4rcvq<4",
"14usssssssssssssdxvvvxjjjjjjcbzfsflvvvclssssssssssssssssssssjcvcckr1<4tapa6",
"8tsssssssssssssssgxvvvvvvvbvvvgussfcvvvvlsssssssssssssssssssxvvvbh1111<1ihq",
"usssssussssssssssszvvvvvvvvvvbgysskvvvvvvlssssssssssssssssssxvvvlr1111114-4",
"uusssssssssssssssslvvvvvvvvvcvjusjcvvvvvvvjssssssssssssssssdcvvba4<11111111",
"sssssssssssssssssslvvvvvvvvvvvgsslvvcvvvvvjysssssssssssssssdlvvba<111111111",
"sssssysssssssssssszvvvvvvvvvvvgsjcvvvvvvvvjsssssssssssssssssszvva1111111111",
"sssssssssssssssssfcvvvvvvvvvvvgjvvvvvvvvvvjsssssssssssssssssslccp<111111111",
"sssssssssssssdfgjxvvvvvvvvvvvvxcvvvcvvvvvvjssssssssssssssssysfw651111111111",
"ssssssssssssfxcvvvvvvvvvvvvvvvvvvvvvvvvvvkssssssssssssssssssss6111111111111",
"ssssssssssssjbvvvvvvvvvvvvvvvvvvvvvvvvvvvgssssssssssssssssssss6111111111111",
"ssssssssssssxvvvvvvvvvvcvvvvvvvvvvvvvvvvvgssssssssssssssssssss6111111111111",
"sssssssslklxvvvvvvvvvvvvvvvvbcbcvvbclccvclfsssssssssssssssssss6111111111111",
"ssssssfjvvvvvvvvvvvvvvvvvvvvcbvxlkljscbvbbjussssyuusssssssssssw411111111111",
"ssssgcccvvvvvvvvvvxvvbvvcvvvbzxgyysgjcvvcbjssssggggssssssssssss911111111111",
"ssssjvvvvvvvvvvcxzflxxvvvvvvxfssssjcvvvvcvlsssgccclgsssssssssss711111111111",
"ssysjbvvvvvvvcxxsssssjcvvvbxfssssjvvvvvvbvvlsjcczfsssssssssssss94<<11111111",
"ssgzccvvvvvvczssssssssjvvvxfsssjvvvvvvvvcvvcccbcdsssssssssssssssq1111111111",
"ssjbvcbcvvvvzfssssskvccvvxsssssjvvvvvvvvvvcccvbzssssssssssssssss0<111111111",
"ggxbvvcbvvvvlssssslvvvvvxfssssskbvvvvvvvcclfjccfssssssssssssssssq1111111111",
"vvvvvvvvvvvcgsssssxbvvvvxssssssjvvvvcbcbjgdsgbcssssssssusssssssji1111111111",
"cvvvvvvvvvvcfsssssxbvvbxgsssssskbvvvbccjsyssgvcsssssssssssssssslp1111111111",
"vvvvvvvvvcvcdsssssgxvvvlssssssskvvvvvbjsssssgcgsssssssssssssssslp1111111111",
"vvvvvvvvvvvzsssssssgkkkgssssssskbcvvclsssssygzsssssssssssssssssjjq1<1111111",
"vvvvvvvvvxljssssssssssssssssssskvvvvxsssssssfjsssssssssssussssflvg<41111111",
"vvvvvvvvxgssssssssssssssssssssslvvvvcsssssssssssussssssssssssslvcg<<1111111",
"vvccvxljdssssssssssssssssssssssjcvvvxssssssssssssssssssssssssfzbbg111111111",
"fgssffssssssssssssssssssssssssssjvbcssssssssssssssssssssssssyjllzu111111111",
"@@@@#;8sssssssssssssssssssssssslvvvxsssssssssssssssssssssssy444444111111111",
"      O>sssssssssssssssssssssskbvvvxxsssssssssssssssssssst44111111111111111",
"       X8ssssssssssssssssssskxvvbzfffssssssssst7yssssssst411111111111111111",
"        :sssssskssssssssssssxvvvxssssssssssssst4yssssssst111111111111111111",
"        $ssssssxsssssssssssjvvvlssssssssssw77763tsssssst6111111111111111111",
"         >sssszcksssssssssscvvxssssssssse0411113ysssssse1111111111111111111",
"         O8sslvvvkssssssssjcblsssssssss041111119ssssssse1111111111111111111",
"          :skbvvvvzssssssgcvlgsssssssss41111119yssssssse1111111111111111111",
" .        +fvvvvvvbjssssssgksssssssssst4111114ssssssssse1111111111111111111",
"        . Xjvvvvvvvxfsssssssssssssssst41111118ssssssssse1111111111111111111",
".         Ojvvvcvvvvjssssssssssssssssy3111116yssssssssse1111111111111111111"
};
