/* XPM */
static char *_fbbff14c22048cc832e7de2f6e92051yhv4rh3HQdbOp4Ji[] = {
/* columns rows colors chars-per-pixel */
"75 75 154 2 ",
"   c #3D6F8E",
".  c #3F708F",
"X  c #40708F",
"o  c #427291",
"O  c #497795",
"+  c #4B7996",
"@  c #457998",
"#  c #4F7C99",
"$  c #527E9A",
"%  c #56829D",
"&  c #59839E",
"*  c #4C85A4",
"=  c #5C86A1",
"-  c #5F89A2",
";  c #658DA5",
":  c #688FA7",
">  c #6B92AA",
",  c #7196AD",
"<  c #7599AE",
"1  c #759AB1",
"2  c #7C9EB3",
"3  c #6CA8BF",
"4  c #7FA2B6",
"5  c #6EA9C0",
"6  c #75AEC3",
"7  c #78AFC4",
"8  c #7BB1C5",
"9  c #81A3B7",
"0  c #82A5B8",
"q  c #89A7B9",
"w  c #87A8BB",
"e  c #8CACBD",
"r  c #84B7C9",
"t  c #86B8CA",
"y  c #8BBBCC",
"u  c #96B3C3",
"i  c #99B6C5",
"p  c #92BFCE",
"a  c #9FBBCA",
"s  c #A2BDCB",
"d  c #94C0CF",
"f  c #96C1D0",
"g  c #9CC5D3",
"h  c #A6C0CE",
"j  c #A1C7D4",
"k  c #ABC5D1",
"l  c #A4C9D6",
"z  c #A9CCD7",
"x  c #A5CBD8",
"c  c #ADCED9",
"v  c #B3CAD5",
"b  c #B0CFD9",
"n  c #B9CFD9",
"m  c #B4D2DC",
"M  c #BDD6DE",
"N  c #BFD8DF",
"B  c #B7D6E0",
"V  c #B8D7E0",
"C  c #BCD9E2",
"Z  c #C2D6DE",
"A  c #C0D8DF",
"S  c #C4D7E0",
"D  c #C4DBE1",
"F  c #CADFE5",
"G  c #CBDFE5",
"H  c #C9DEE4",
"J  c #CDDFE5",
"K  c #CDDFE6",
"L  c #C9DEE4",
"P  c #CBE0E5",
"I  c #CCE0E6",
"U  c #CDE1E6",
"Y  c #CDE1E7",
"T  c #CEE1E7",
"R  c #CDE2E7",
"E  c #CEE2E7",
"W  c #CFE2E7",
"Q  c #CDE1E6",
"!  c #CFE2E8",
"~  c #CFE3E8",
"^  c #CCE2E8",
"/  c #D0E3E8",
"(  c #D2E3E9",
")  c #D4E3E8",
"_  c #D1E4E9",
"`  c #D0E4E8",
"'  c #D2E4E9",
"]  c #D2E5E9",
"[  c #D2E5EA",
"{  c #D3E5EA",
"}  c #D3E6EA",
"|  c #D4E4E9",
" . c #D5E6EA",
".. c #D4E6EB",
"X. c #D5E6EB",
"o. c #D5E7EB",
"O. c #D6E7EB",
"+. c #D6E7EC",
"@. c #D3E5EA",
"#. c #D8E7EC",
"$. c #D6E8EC",
"%. c #D7E8EC",
"&. c #D6E8EC",
"*. c #D8E9ED",
"=. c #D9E9ED",
"-. c #DAE9ED",
";. c #DBE9ED",
":. c #D9EAED",
">. c #DAEAEE",
",. c #DBEAEE",
"<. c #DBEBEF",
"1. c #DCEBEF",
"2. c #DCECEF",
"3. c #DAEAEE",
"4. c #DDECF0",
"5. c #DEECF0",
"6. c #DEEDF0",
"7. c #DFEDF0",
"8. c #DFEDF1",
"9. c #DFEEF1",
"0. c #DDEDF0",
"q. c #E0EEF1",
"w. c #E2EEF1",
"e. c #E0EFF2",
"r. c #E1EFF2",
"t. c #E2EFF2",
"y. c #E0EFF2",
"u. c #E2F0F2",
"i. c #E2F0F3",
"p. c #E3F0F3",
"a. c #E3F1F3",
"s. c #E4F1F3",
"d. c #E4F1F4",
"f. c #E4F2F4",
"g. c #E5F2F4",
"h. c #E5F2F5",
"j. c #E6F2F5",
"k. c #E6F3F5",
"l. c #E7F3F5",
"z. c #E7F3F6",
"x. c #E7F4F6",
"c. c #E5F2F5",
"v. c #E8F4F6",
"b. c #E9F4F6",
"n. c #E9F5F6",
"m. c #E9F5F7",
"M. c #EAF5F7",
"N. c #EAF6F7",
"B. c #E8F4F6",
"V. c #EAF6F8",
"C. c #EBF6F8",
"Z. c #EBF7F8",
"A. c #ECF7F9",
"S. c #EBF6F8",
/* pixels */
"O o o o o o o o o o o O o o o o o o o o o o o o o o o o o o o o o o o o o o o o o o o O * @ o o o o o o o o o o o o o o o o o o o o o o o o o o o o o ",
"o o o o o o o o o o o o o o o o o o o o o o o o o O o o o o o o o o o o o o o o o o o o o o o o o o o o o o o o o o o o o o o o o o o o o o o o o o o ",
"o o o o o o o o o o o o o o o o o o o o o o o o o o o o o o o o o o o o o o o o o o o o o o o o o o o o o o o o o o o o o o o o o o o o o o o o o o o ",
"o o o o o o o o o o o o o o o o o o o o o o o o o o o o o o o o o o o o o o o O o o o o o o o o o o o o o o o o o o o o o o o o o o o o o o o o o o o ",
"o o o o o o o o o o o o o o o o o o o o o o o o o o o o o o o o o o o o o o o o o o o o o o o o o o o o o o o o o o o o o O o o o o o o o o o o o o o ",
"o o o o o o o o o o o o o o o o o o o o o o o o o o o o o o o o o o o o o o o o o o o o o o o o o o o o o o o o o o o o o o o o o o o o o o o o o o o ",
"o o o o o o o o o X X X X X o o o o o o o o o o o o o o o o o o o o o o o o o o o o o o o o o o o o o o o o o o o o o o o + O O O o o o o o o o o o o ",
"o o o o o o o o $ : , < 1 1 # o o o o o o o o o o o o o o o o o o o o o o o o o o o o o o o o o o o o o o o o o o o o o < A A D n & o o o o o o o o o ",
"o o X X o o > w k M N A A #.q X o o o o o o o o o o o o o o o o o o o o o o o o o o o o o o o o o o o   o o o o o o X < G M.Z.S.x.m &   X o o o o o o ",
"o X X X & e M S A N A A A U Z & X o o o o o o o o o o o o o o o o o o o o o o o o o o o o o o o o o   = u O o o o X 1 D S.b.b.b.v.v.n ; X o o o . o . ",
"& % ; 9 k A A A A A A A A A ;.s & X o X X X X X X X o o o o o o o o o o o o o o o o o o o o o o o . = k :.i +   o 1 H Z.l.M.l.b.v.v.Z.v ;     = i i i ",
") W U D A A A A A A A A A A W #.v ; = : : , e i e < + o o o o o o o o o o o o o o o o o o o . o o = s l.Z.8.i w $ k A.b.z.l.b.l.x.x.x.A.9 ; w k Z.Z.A.",
"v.v.v.;.D A A A A A A A A A A A A m A ) O.w.v.v.M.w.k ; o o o o o o o o o o o o o o o o o > 2 &   4 Z.M.Z.x.v.x.i M Z.l.M.Z.l.l.v.v.v.v.s v A.x.l.v.v.",
"v.v.v.x.O.D A A A A A A A A A A A A Z A D 2.b.b.b.M.M.) 2 o o o o o o o o o o o o o o O : H Z.s : i 8.8.x.x.x.v.b.z.l.l.l.z.Z.z.v.v.v.v.Z.x.x.Z.x.x.v.",
"v.v.v.x.l.:.L D A A A A A A A A A A A A A D w.b.b.b.b.M.;.u = o o o o o o o o o o o o + S v.b.w.:.( C F 8.i.l.l.b.b.z.Z.z.l.l.l.x.x.i.e.w.8.8.i.v.v.v.",
"v.v.v.v.v.g.w.O.A A A A A A A A A A A A A D 1.g.b.b.b.b.b.b.A + o o o o o o o + & $ o + H M.g.( S S A A S F i.M.l.b.l.l.Z.l.Z.z.x.i.P S D S S P l.v.v.",
"v.v.v.v.x.] D D A A A A A A A A A A N N A A D u.v.v.v.v.v.v.H + o o o o o o . , ) M & & F v.~ S S A A A F w.l.v.v.v.l.l.g.l.l.l.l.F N A A A A A K l.l.",
"v.v.v.x.$.A A A A A A A A A A A A A S A A A S 8.v.l.v.v.v.v.S # o o o o o o o 2 l.l.K K u.x.! N C A U u.u.v.x.x.v.v.:.D D L P l.g.D N A A A A A S U i.",
"l.v.v.<.A A A A A A A A A A A A W w.8.:.A A N P 8.b.b.b.A.D : o o o o o o . 1 K b.l.Z.v.v.v.! N N U u.v.v.v.v.l.v.o.S A N N S L H S A A A A A A N L l.",
"l.u.} S A A A A A A A A N A A U u.v.v.x.<.A C } l.v.v.v.S > o o o o o o o . w Z.v.v.v.v.v.v.U N A D U U U U U U w.! C A A N N N N A A A A A A A N S P ",
"} L A A A A A A A A A A A A N ;.v.v.v.v.g.D A u.v.v.v w > o o o o o o o o   0 Z.Z.i.[ } ( ( D N A A N N N N N } O.D A A A A A A A A A A N A A A N N N ",
"A A A A A A A A A N A A A A N $.v.v.v.v.u.D } g.x.Z.M > . o o o o o o o o - k i.o.( A C N N S N A A N N A } O.g.P N A A A A A A A A A A A A A A A N A ",
"A A A A A A A A A A A A A A A $.v.v.v.v.u.O.g.l.v.v.A.s o o o o o o o o o 0 U W A N A A A A A A A A A S } l.x.<.D S A A A A A A A A A A A A A A A A A ",
"A A A A A A A A A A A A A A A U 8.u.v.v.v.v.v.x.v.x.Z.a . o . o . o o o . 0 S A A A A A A A A A A A N P x.x.2.D A A A A A A N A A A A A A A A A A A N ",
"N A A A N N A A A A A A A A A A A U 8.w.x.x.x.v.v.v.v.s X + : > : O X o   0 S C A A A A A A A A A A N L l.l.D N A A A A A A A A A A A A A A A A A A N ",
"A A A D D N A A A A N A A A A A A A S L e.x.v.v.v.v.Z.k & 9 8.u.o.1 = +   0 S S A A A A A A A A A N N L l.l.D N A A A A N A A A A A N A A A A A A A A ",
"A A U g.} D S N A A A A A A A A A A N N P e.x.x.v.v.v.u.2.2.v.v.z.4.:.4 # e D C A A A A A A A A A A N F i.x.F S D D S A A A A A A A A A A A A A A A N ",
"A A O.v.f.u.$.S A A A A N A A A A A N N S D u.x.v.v.v.v.v.v.v.v.x.Z.b.#.} P A N A A A A A N A A A A A F x.x.l.i.u.i.} A A A A A A A A A A A A A A A N ",
"A A L 2.v.v.l.w.<.A A A A A A A A A N A A A L e.v.v.v.v.v.v.v.v.M.l.b.Z.v.l.} N A A A A A A A A A U u.i.l.l.l.v.x.x.g.} A A A A A A A A A A A A N A A ",
"A A A D 1.v.v.v.u.A A A A A A A A A A A A A N P 8.v.v.v.v.v.v.x.l.b.l.b.v.v.:.A N A A A A A A N U u.v.v.g.U F F P P P D A A A A A A A A A A A A A A A ",
"A A A N L :.b.b.g.$.A A A A A A A A A A A N N N 8.v.v.v.v.v.u.E ! ! U U U 1.$.A N A A A A A N N } v.v.l.U A N N N N N A A N A A A A A A A A A A A A A ",
"A A A A N L 1.b.v.x.$.D } $.$.$.$.$.$.$.$.O.S S P 8.v.v.v.v.x.$.C N N N N F F N N N S O.o.D N N L } } U A A A A N A A A A A A A A A A N A A A A A A A ",
"A A A A A N L 2.v.v.x.$.l.v.v.v.v.v.v.v.v.g.D A C :.v.v.v.v.x.l.O.A N A A A L } O.} O.l.x.:.O.L N A N N A A A A N A N A A A N A A A A A A A A A A A A ",
"A A A A A A A D 2.x.v.v.v.v.v.v.v.v.v.v.v.l.O.A A :.v.v.v.v.v.v.g.O.~ S N D :.v.v.v.l.l.v.l.v.:.D A A A A A A K ( D N N N A A A A A A A A A A A A A A ",
"A A A A A A A N L l.v.v.v.v.v.v.v.v.v.v.v.v.l.} D :.l.x.v.v.v.v.b.b.l.O.U :.v.v.v.v.v.v.v.v.v.v.1.F F N C A P u.v.$.P U P L A A A A A A A A A A A A A ",
"A A A A A A A N L g.8.w.b.v.v.v.v.v.v.v.v.v.v.b.K ( l.v.v.v.v.v.b.l.v.v.v.v.v.v.v.v.v.v.v.v.v.v.b.b.1.H L U u.v.v.v.x.x.v.w.F D A A A A A A A A A A N ",
"A N N N A A A A L 2.D D 2.g.w.l.v.v.v.v.v.v.v.v.W D :.v.v.v.v.v.v.v.v.v.v.v.v.v.x.x.x.v.v.v.v.v.b.l.x.l.l.l.l.v.v.x.v.v.v.x.l.u.F N N A A A A A A A N ",
"M M N N A A A A A S A A D A D O.v.v.v.v.v.v.v.v.l.i.v.v.v.v.v.v.v.v.v.v.v.v.v.v.x.x.v.v.v.v.v.x.l.b.v.x.l.i.g.g.l.i.l.x.v.v.v.x.w.F A A A A A N M M M ",
"p d m N N A A A A A A A A A A A O.x.v.v.v.v.v.v.v.v.v.v.v.v.v.v.v.v.v.v.v.l.l.l.l.l.l.l.x.l.x.x.v.l.l.8.L D D L D D D o.l.l.v.v.b.w.L A A N V c p p p ",
"y y d p c A A A A A A A A A A A S O.v.v.v.v.v.v.v.v.v.v.v.v.v.v.v.v.v.v.v.:.D F F P D F L L 8.x.v.4.F D C A A A A A N D D } l.x.l.l.F N A z f f y y y ",
"y y y y p z A A A A A A A A A A N D O.x.x.v.v.v.l.b.l.x.v.v.l.v.v.v.v.v.o.D S N N N N N N N D U E A N A A A A A A A A A A D F ( l.l.F S z d y y y y y ",
"y y y y y l A A A A A A A N A A N N P v.x.v.v.v.b.b.:.( U O.b.b.v.v.b.:.D N S N N N A N A A S N A A A A A A A A A A A A A A N S ( w.:.:.z t y y y y y ",
"y y y y y f m A A A A A A A A A A A D ;.x.v.v.$.} } L A A D } } } } } D N A A A A A A A A A N A A A A A A A A A A A A A A A N N A O.l.L g y y y y y y ",
"y y y y y y g A A A A A A A A N N N A D g.g.;.D N N A A A A N N N N N S A A A A A A A A A A A A A A A A A A A A A A A A A A A A A C C g y y y y y y y ",
"g y y y y y j A A A A A A A P E ~ U ! } x.g.D N A A A A N A A A N N A A A A A A A A A A A A A A A A A A A A A A N N m c c c c c b c p y y y y y y y y ",
"M j f p y y j A A N A A A N } 9.u.v.x.x.v.g.W A A A A A A A A A A A N A A A A A A A A A A A A A A A A A A A A N A M g y y y y y y y y y y y y y y y y ",
"A A M l y y g m M N A A A N A A ~ u.e.u.v.v.l.U A A A A A A A A A A A A A A A A A A A A A A A A A A A A A A A A M f y y y y y y y y y y y y y y y y y ",
"A A A Z l p p p g N A A A A A C S S S F u.u.v.l.P N A A A A A A A A A A A A A A N A A A A A A A A A A A A A A N j d y d d d y y y y y y y y y y y y y ",
"A A A A M M M m N N A A A A A A A A A A D D u.x.U A A A A A A A A A A A A A A A A A A A A A A A A A A A A A A A N M M M M z d y y y y y y y y y y y y ",
"A A A A A A N N A A A A A A A A A A A A A A D w.P C A A A A A A A A A A A A A A A A A A A A A A A A A A A A A N N N A A N M m b p y y y y y y y y y y ",
"A A A A A A A A N A A A A A A A A A A A A A S 8.U N A A A A A A A A A A A A A A A A A A A A A A A A A A A A A N N N A A A n f f y y y y y y y y y y y ",
"A A A A A A A A A A A A A A A A A A A A A A A P D A A A A A A A A A A A A A A A A A A A A A A A A A A A A A A N N N A A m f y y y y y y y y y y y y y ",
"A A A A A A A A A A A A N A A A A A A A A A A N A A A A A A N A A A A A A A A A A A A A A A A A A A A A A A N N A A A c f y y y y y y y y y y y y y y ",
"A A A A A A A N A A A A A A A A A N A A A A A A A A A A A A A A A A A A A A A A A A A A A A A A A A A A A A N N A A A z y y y y y y y y y y y y y y y ",
"A A A A A A A N A N A A A A A A A A A A A A A A A A A A A A A A A A A A A A A A A A A A A A A A A M z z z z z M A A N z t d y y y y y y y y y y y y y ",
"v c m c b c M N A A A A A A A A A A A A A A A A A A A A A A A A A A A A A A A A A A A A A A A m b j y y d t d l b c M b g f y y y y y y y y y y y y y ",
"y y y y y y g c n N A A A A A N A A A A A A A A A A A A A N A A A A A A A A A A A A A A A A A j y y y y y y t d d t g m m m g g p y y y y y y y y y y ",
"y y y y y y y d d m N N A A A A A A A A A A A A A A A A A A A A A A A A A A A A A A A A A A M g y y y y y y y t y y t d g m M A M g p p p f p p d y y ",
"y y y y y y y y y f N N A A A A A A A A A A A A A A A A A A A A A A A A A A A A A A A N A A j y y y y y y y d t y y y y y g A A A M M M N N M M m d y ",
"y y y y y y y y y d M N A A A A A A A A A A A N A A A A A A A A A A D A D S A A A A A A A A g y y y y y y y t t y y y y y f M A A N N A A A M M C x d ",
"y y y y y y y y y y f M A A A A A A A A A A A A A A A A A A A S S 4.u.w.u.~ N A A A A N C V g y y y y y t t d d y y y y y d f M N A A A C x f p f f y ",
"y y y y y y y y y y d } A A A A A A A A A A A A A A A N A C D 1.8.l.v.v.v.l.} A A A A N j f d y y y y y d t t t y y y d y y d g M A N A z p y y y y y ",
"y y y y y y y y y y d 8.2.;.U A A A A A A A A A A z g g g g z l.v.v.v.v.l.b.u.} A A A N c f y y y y y y t d C ^ P P N z z b z b N N l g p y y y y y y ",
"y y y y y y y y y t d 2.v.n.2.;.:.:.) A A N z j j p y y y y g i.Z.Z.v.v.v.b.b.u.$.} S A A c f y y y t f C P f.n.n.n.s.A l j z A N z y y y y y y y y y ",
"y y y y y y y y y y f e.N.x.x.[ C C B x x g d y y y y y y y f V C C C <.x.x.x.x.V.f.[ D S C c l l c M D x.x.x.x.^ B C x t y d g x d y y y y y y y y y ",
"y y y y y y y y y y d C D P P x t y y y y y t y y y y y y y y y y y t B P *.V.V.x.x.z.~ S C A A D :.v.v.x.A.x.^ g y y y y y y y y y y y y y y y y y y ",
"y y y y y y y y y y y y t y y y y y y y y y y y y y y y y y y y y y y y y x ^ <.z.Z.x.z._ S L F <.v.v.v.x.~ ^ f y y y y y y y y y y y y y y y y y y y ",
"y y y y d y y y y y y y d t y y y y y y y y y y y y y y y y y y y y y y y y y x z.x.x.x.z.~ 4.Z.v.v.v.x.^ f y y y y y y y y y y y y y y y y y y y y y ",
"y y y y y y y y y y y y y y y y y y y y y y y y y y y y y y y y y y y y y t y B x.x.x.Z.z.l.x.x.x.x.x.<.g y y y y y y y y y y y y y t t t y y y t t 8 ",
"y y y y y y y y y y y y y y y y y y y y y y y y y y y y y y y y y y y y y y B f.Z.x.x.x.z.z.x.Z.x.x.x.V.&.g y y y y y y y y y y y t 6 5 5 8 t t 8 5 5 ",
"y y y y y y y y y y y y y y y y y y y y y y y y y y y y y y y y y y y y y B i.x.l.l.i.i.i.x.f.x.h.h.x.h.h.[ g y y y y y y y y y y 6 5 5 5 5 5 5 5 3 5 ",
"y y y y y y y y y y y y y y y y y y y y y y y y y y y y y y y y y y y y y V x.x.l.4.x g g g g g g g g g x e.[ g y y y y y y y y y t y 8 t 7 5 5 5 5 5 ",
"y y y y y y y y y y y y y y y y y y y y y y y y y y y y y y y y y y y y B C x x x g y y y y y y y y y y y g x d y y y y y y y y y y y y y t 8 5 5 5 5 ",
"y y y y y y y y y y y y y y y y y y y y y y y y y y y y y y y y y y y y P V t t y y y y y y y y y y y y y y d y y y y y y y t 7 6 7 6 t y d 8 5 5 5 5 ",
"y y y y y y y y y y y y y y y y y y y y y y y y y y y y y y y y y y y y x x y y y y y y y y y y y y y y y y y y y y y y y t 6 5 5 5 5 6 t y 8 7 5 3 3 "
};
