/* XPM */
static char *a9762b67741c43b0c4aca7bea7ab54f5XdcGEjETASq7cHzh[] = {
/* columns rows colors chars-per-pixel */
"75 75 142 2 ",
"   c #3D6F8E",
".  c #3F708F",
"X  c #40708F",
"o  c #427291",
"O  c #497795",
"+  c #4B7996",
"@  c #457998",
"#  c #4F7C99",
"$  c #527E9A",
"%  c #56829D",
"&  c #59839E",
"*  c #4C85A4",
"=  c #5C86A1",
"-  c #5F89A2",
";  c #658DA5",
":  c #688FA7",
">  c #6B92AA",
",  c #7196AD",
"<  c #7599AE",
"1  c #759AB1",
"2  c #7C9EB3",
"3  c #6CA8BF",
"4  c #7FA2B6",
"5  c #6EA9C0",
"6  c #75AEC3",
"7  c #78AFC4",
"8  c #7BB1C5",
"9  c #81A3B7",
"0  c #82A5B8",
"q  c #89A7B9",
"w  c #87A8BB",
"e  c #8CACBD",
"r  c #84B7C9",
"t  c #86B8CA",
"y  c #8BBBCC",
"u  c #96B3C3",
"i  c #99B6C5",
"p  c #92BFCE",
"a  c #9FBBCA",
"s  c #A2BDCB",
"d  c #94C0CF",
"f  c #96C1D0",
"g  c #9CC5D3",
"h  c #A6C0CE",
"j  c #A1C7D4",
"k  c #ABC5D1",
"l  c #A4C9D6",
"z  c #A9CCD7",
"x  c #A5CBD8",
"c  c #ADCED9",
"v  c #B3CAD5",
"b  c #B0CFD9",
"n  c #B9CFD9",
"m  c #B4D2DC",
"M  c #BDD6DE",
"N  c #BFD8DF",
"B  c #B7D6E0",
"V  c #B8D7E0",
"C  c #BCD9E2",
"Z  c #C2D6DE",
"A  c #C0D8DF",
"S  c #C4D7E0",
"D  c #C4DBE1",
"F  c #C9DEE4",
"G  c #CBE0E5",
"H  c #C8E0E7",
"J  c #CBE0E6",
"K  c #CCE0E6",
"L  c #CDE1E6",
"P  c #CDE1E7",
"I  c #CEE1E7",
"U  c #CEE2E7",
"Y  c #CDE1E7",
"T  c #C8E1E8",
"R  c #C9E1E8",
"E  c #CBE2E9",
"W  c #CFE2E8",
"Q  c #CFE3E8",
"!  c #CFE4EB",
"~  c #CFE3E8",
"^  c #D0E3E8",
"/  c #D1E4E9",
"(  c #D2E4E9",
")  c #D2E5E9",
"_  c #D3E5EA",
"`  c #D3E6EA",
"'  c #D4E6EB",
"]  c #D5E7EB",
"[  c #D6E7EB",
"{  c #D3E7EC",
"}  c #D3E5EA",
"|  c #D8E7EC",
" . c #D5E8ED",
".. c #D6E8EC",
"X. c #D5E8EE",
"o. c #D7E8EC",
"O. c #D9EAEE",
"+. c #D8EAEF",
"@. c #DAEAEE",
"#. c #DBEAEE",
"$. c #DBEBEE",
"%. c #DBEBEF",
"&. c #DCEBEF",
"*. c #DAEAEE",
"=. c #DDECF0",
"-. c #DEEDF0",
";. c #DFEEF1",
":. c #DFEEF2",
">. c #DEEDF0",
",. c #E0EEF1",
"<. c #E0EFF2",
"1. c #E1EFF2",
"2. c #E1EFF2",
"3. c #E2F0F2",
"4. c #E3F0F2",
"5. c #E2F0F3",
"6. c #E3F0F3",
"7. c #E3F1F3",
"8. c #E4F1F3",
"9. c #E3F1F4",
"0. c #E4F1F4",
"q. c #E4F2F4",
"w. c #E5F2F4",
"e. c #E5F2F5",
"r. c #E6F2F5",
"t. c #E6F3F5",
"y. c #E7F3F5",
"u. c #E7F3F6",
"i. c #E7F4F6",
"p. c #E5F2F5",
"a. c #E8F4F6",
"s. c #E9F4F6",
"d. c #E9F5F6",
"f. c #E9F5F7",
"g. c #EAF5F7",
"h. c #EAF6F7",
"j. c #EBF6F7",
"k. c #E8F4F6",
"l. c #EBF6F8",
"z. c #EBF7F8",
"x. c #ECF7F9",
"c. c #EBF6F8",
/* pixels */
"o o o o o o o o o o i l.u.u.f.u.i.i.q.L A A A A A A A A A A A A A A A A A M d t y y y y y y y y y y y y y y y y y y t d t y y y y y y y t 5 3 3 3 3 3 ",
"o o o o o o o o o o i l.i.f.u.f.y.U D A A A A A A A A A A A A N A A A A A M d y y y y y d y y y y y y y y y y y y y d c d y y y y y y y t 5 3 3 3 3 3 ",
"o o o o o o o o o o i f.f.i.f.4.L S A A A A A A A A A A A A A A A A A A M M d y y y y y t y y y y y y y y y y y y d m M d d y y y y y y y r 5 5 5 5 6 ",
"o o o o o o o o o o = k f.f.4.L A A A A A A A A A A A A A A A A A A A A N N c d y y y y y y y y y y y y y y y y y d M M d t y y y y y y y t 6 5 3 5 6 ",
"o o o o o o o o o o   w f.f.,.S A A A A A A A A A A A A A A A A A A A A N A M f y y y y y y y y y y y y y y y y y d M M d t y y y y y y y y 5 5 6 8 t ",
"o o o o o o o o o o . ; v i.4.S A A A A A A A A A A A A A A A A A A A A N N A z d t t y y y y y y y y y y y y y y d M M x d y y y y y y y 8 5 6 t y y ",
"o o o o o o o o o . ; 9 h i.<.D A A A A A A A A A A A A A A A A A A A A A A A A c z g t y y y y y y y y y y y y y d M N A x d t y y y y t 5 5 r y y t ",
"o o o o o o o o . - v f.i.i.4.A A A A A A A A A A A A A A A A A A A A A A A A N N %.T g y y y y y y y y y y y y t d N A A N g y y y y y r 5 5 r y t 6 ",
"o o o o o o o o = v f.f.y.f.,.F A A A A A A A A A A A A A A A A A A A A N A F F F $.y.S d t y y y y y y y y y y y d M N N A l y y y y y y 6 5 r y 6 5 ",
"o o o o o o o % m f.y.f.f.y.y.u.L Z A A A A A A A A A A A A A A A A A A A F 3.q.q.q./ N c y y y y y y y y y y y y g N N N A A z y y y y y t 6 r y 5 5 ",
"o o o o o o + n y.y.f.y.f.y.f.y.q.q.H N A A A A A A A A A A A A A A A A F 4.f.i.y.^ A A c y y y y d y y y y y y d M N N A M M A l t y y y y y y y 6 5 ",
"o o o o o o + S j.f.y.f.y.f.y.f.f.q.F N A A A A A A A A A A A A A A A D 3.f.y.i.U D A A c y y y y b d y y y y y g N N N M g b A x y y y y y y y y 7 5 ",
"o o o o o o + S f.f.y.f.f.y.f.y.y.L S A A A A A A A A A A A A A A A N F i.i.f.y.H A A Z b y t y d m g y y y y y d M N N g y b z p y y y y y y y y t 8 ",
"o o o o o o + Z f.y.f.y.y.f.y.f.q.D N A A A A A A A A A A A A A A A F ;.i.f.y.^ A A A A b y t d b M m d y y y d m M g f y y c l y y y y y y y y y y t ",
"o o o o o o o , F l.y.f.f.y.f.y.q.F A A A A A A A A A A A A A A A A L i.i.u.q.H A A A A b y y d M A A m f y y g M g y y y y b l y y y y y y y y y y y ",
"o o o o o o o X < F j.f.y.f.y.f.u.D A A A A A A A A A A / D A A A A L i.f.u.[ S A A A A c y y d M A A A b z z b b y y y y y c A x y y y y y y y y y y ",
"o o o o o o o o . 1 S z.f.f.f.y.u.[ S N A A A A A A A [ q.F N A A N G i.y.4.Z N A A A A m g y d M M M A A A A M j d y y y y M 3.C y y y y y y y y y y ",
"o o o o o o o o o . 2 k M i.y.f.y.f.[ W D A A A A A A q.f.F N A A D [ f.f.y.H A A A A A A m g d M M A A A A A b y t y y y y T h.C t y y y y y y y y y ",
"o o o o o o o o o o . % i y.f.y.f.y.f.,./ L F A A A A 1.d.G A A N U f.i.y.y.G N A A A A A A M g M A A A A A N b y y y y y y T h.T g t y y y y y y y y ",
"o o o o o o o o o o   w f.f.y.f.y.f.y.L / q.%.D A A F q.y.F N A N L 4.i.i.4.Z A A A A A A A A A A A A A A M M z y y y y y y T h.i.T g y y y y g p y y ",
"o o o o o o o o o X + i f.f.i.4.y.f.f.L A [ f.$.D D H q.i.L N A A A H q.i.4.D A A A A A A A A A A A A A A A c y y y y y y y D 7.i.i.T y y y g { x y y ",
"O o o o o o o o o O i 4.i.i.4.H ,.y.f.L A / q.f.9.4.q.f.u.L A A A A A G y.4.H A A A A A A A A A A A A A A A z y y y y y y y d H l.x.! f y g { :.x y y ",
"o o o o o o o o X u *.f.f.y.;.S F 4.f.L A A [ q.u.u.u.i.i.4.L A A A A F y.y.F A A A A A A A A A A A A A A A c y y y y y y y t C i.i.e.T g X.9.c y y y ",
"o o o o o o o o X % k d.f.,.H N S ,.f.L A A A F F F F F 4.f.4.U N A A F y.f.$.F A A A A A A A A A A A A A A z y y y y y y y y d D z.i.e.+.i.i.g y y y ",
"o o o o o o o o o o = s l.>.N N S H 4.L A A A N N N N S 4.i.f./ N A F $.f.f.q.F A A A A A A A A A A A A M A z y y y y y y y y y m l.f.u.f.f.9.g y y y ",
"o o o o o o o o o o . = 4 i / S N N L D A A A A A A N S L 4.f./ A M F d.f.f.y.$.D A A A A A A A A A A A A M M l y y y y y y y y c $.f.f.f.u.9.g y y y ",
"o o o o o o o o o o o o   : %.S A A N A A A A A A A N N A U / F M D $.d.f.y.f.y.L A A A A A A A A A A A A A A b y d y y y y y y l D O.f.q.y.q.l y y y ",
"o o o o o o o o o o o o & s 4.^ S N N N A A A A A A A A A A N N F *.f.f.y.f.y.f.G A A A A A A A A A A A A A A m g g y t y y y t l N L f.f.f.4.g t y y ",
"o o o o o o o o o o o . 2 l.f.u./ U L L D A A A A A A A A A A N ) f.y.f.f.y.f.$.D A A A A A A A A A A A A A A A N M j g g d y d m N F $.i.i.i.g y y y ",
"@ o o o o o o o o o o . > F f.l.f.i.f.y./ A A A A A A A A A A D *.y.f.y.y.f.y.F N A A A A A A A A A A A A A N A N A A A N f d c A A A ^ i.i.e.g y y y ",
"* o o o o o o o o o o o o > S F F 4.f.f./ M A A A A A A A A A  .y.f.y.f.f.u.u.F N A N A A A A A A A A A A A A A A A N A N l c A C A Q u.l.i.9.g y y y ",
"O o o o o o o o o o o o o o + + & L f.y./ A A A A N A A A A A [ q.y.f.f.q.f.u.F N A A A A A A A A A A A A A A A A A N N N N N A S / u.l.i.i.9.g y y y ",
"o o o o o o o o o o o o o o o o & F f.f.` A A A A A A A A A A S [ f.y.f.y.f.y.F N A A A A A A A A A A A A A A A A A A A A A A A { i.i.i.i.f.9.l y y y ",
"o o o o o o o o o o o o o o X $ M q.y.i.i./ N A A A A A A A A A ) f.f.y.f.y.q.F N A A A A A A A A A A A A A A A A N A A A A A / i.i.i.i.f.i.i.O.l y y ",
"o o o o o O o o o o o o o o X & [ y.i.f.f.[ N A A A N A A A A M [ f.y.f.y.d.y.F N A A A A A A A A A A N A A A A A A A A A A A O.z.i.i.i.i.i.i.u.x y y ",
"o o o o o o o o o o o o o o o + , 2 L z.i.4.Q N A A A A A A A A W f.f.y.f.f.q.F N A A A A A A A A A A A A A A A A A A A A A / 4.i.i.+.x m 9.f.u.x t y ",
"o o o o o o o o o o o o o o o o X o 1 w 0 k Q S S D D N / O.*.F F $.f.y.y.f.q.F A A A A A A A A A A A A A A A A A A A A A / q.f.i.i.! y d m <.i.l t y ",
"o o o o o o o o o o o o o o o o o o X   . - 0 0 0 4 e H u.f.O.F M D *.f.f.y.y.*.D A A A A A A A A A A A A A A A A A A S / q.y.f.i.X.c y t d m C C C x ",
"o o o o o o o o o o o o o o o o o o o o o o . o X . # ^ f.f.L M A A F f.y.f.y.f.[ D A A A A A A A A A A A A A A A A A D ,.y.f.y.z.T y y y y y y B D x ",
"o o o o o o o o o o o o o o o o o o o o o o o o o O 4 O.f.f.^ A A A [ y.f.y.f.y.i.*.D A A A A A A A A A N A A A A A A A ,.f.y.f.+.c y y y y y y t y y ",
"o o o o o o o o o o o o o o o o o o o o o o o o   = O.y.f.y.L A A W f.d.f.y.f.y.f.y.[ A A A A A A A A A A A A A A A A D 4.f.f.f.C y y y y y y y y y y ",
"o o o o o o o o o o o o o o o o o o o o o o o o O < =.f.y.f.L A A [ y.d.y.f.y.f.y.f.^ A A A A A A A A A A A A A A A A D %.i.y.f.C y y y y y y y y y y ",
"o o o o o o o o o o o o o o o X o o o o o o o X : | y.f.f.y.W A [ q.f.y.f.y.f.y.f.y.[ M A A A A A A A A A A A A A A A A A ,.f.f.C y y y y y y y y y y ",
"o o o o o o o o o o o o o o O + + + O o o o o X > ,.f.y.y.f.W [ q.f.y.f.y.f.y.f.y.y.[ A A A A A A A A A A A A A A A A A A $.q.q.V y y y y y y y y y y ",
"o o O o o o o o o o o o o X = A F S ; . o o o X : ,.y.f.y.f.q.q.f.y.f.y.f.y.f.y.f.y.) A A A A A A M A A A A A A A A A A A F c g f y y y y y y y y y y ",
"o o o o o o o o o o o o o X u f.l.l.D > X o o o + 9 ,.y.f.y.y.f.y.f.y.f.y.f.y.f.f.[ A A A A A A A A A A A A A A A A A A A A g y y y y y y y y y y y y ",
"o o o o o o o o o o o o o 2 O.y.u.u.l.S , . . o   & $.f.y.f.f.y.f.y.f.y.f.y.f.y.y.W Z A A A A A A A A A A A A A A A A A A A g y y y y y y y y y y y y ",
"o o o o o o o o o o o X ; ( l.u.u.l.u.l.w > s a s k ,.y.f.y.f.q.y.f.y.f.y.f.y.f.f.W M A A A A A A A A A A A A A A A A A A M g y y y y y y y y y y y y ",
"o o o o o o o o o o o # k s.s.s.f.i.f.f.v M j.j.j.l.f.y.i.f.u.d.j.y.f.1.*.q.y.f.f.$.F A A A A A A A A A A A A A A A A A A A g y y y y y y y y y y y y ",
"o o o o o o o o o o X < 4.s.s.y.i.f.d.y.f.y.f.y.f.y.y.f.f.i.f.,.*.O.O.[ A q.f.y.f.f./ N A A A A A M A A A A A A A A A A A A z d y y y y y y y y y y y ",
"o o o o o o o o o o o e l.y.y.s.i.i.<.i.d.y.y.f.f.y.f.y.i.;.%.L A M A L ) y.y.f.f.f./ A A A A L L L L S A A A A A A A A A A A l y y y y y y y y y y y ",
"o o o o o o o o o o o i j.s.y.y.4.;.D [ ,.q.f.y.y.f.y.f.4.H A N A A ( y.f.y.f.y.f.i.O.S A A L q.i.4.$.H A A A A A A A A A A A j y y y y y y y y y y y ",
"o o o o o o o o o o X e s.y.u.$.D A A S A / q.f.f.y.f.,.F N A S F ) y.f.y.f.y.f.q.y.f.*.D W q.f.,.D A A A A A A A A A A A A A l y y y y y y y y y y y ",
"o o o o o o o o o o X , 1.$.D S A A A S D A [ u.y.f.,.F A A N [ q.q.f.y.f.y.f.y.f.f.y.q.q.q.f.q.F A A A A A A A A A A A A A A A l y y y y y y y y y y ",
"o o o o o o o o o o . : [ D S S A A A O.q.4.q.f.f.,.F A A A A [ f.f.y.f.y.f.y.f.y.f.y.q.i.f.f.4.D A A A A A A A A A A A A A A A x y y y y y y y y y y ",
"o o o o o o o o o o o : / A A N A A O.u.y.f.u.f.,.F A A A A A  .f.y.f.y.f.y.f.y.f.q.*.F / i.4.H A A A A A A A A A A A A A A A A x y y y y y y y y y y ",
"o o o o o o o o o o X & A Z A A A D ;.f.i.i.i.f.<.S A A A A A [ d.y.y.f.y.f.y.f.[ H Z A ^ f.4.A A A A A N A A A A A A A A A A / B y y y y y y y y y y ",
"o o o o o o o o o o X ; m Z A A A S ;.f.i.f.f.4.L A A A A A A  .d.f.f.y.f.y.y.[ S M A A L f.4.A A A A A A A A A A A A A A A A O.C y y y y y y y y y y ",
"o o o o o o o o o X & v A A A A A A L 4.f.f.f.$.N A A A A A A [ d.f.y.f.y.y.[ A A A A A U q.^ A A A A A A A A A A A A A A A A O.C y y y y y y y y y y ",
"o o o o o o o o o & s | A A A A A A A L [ [ [ U A A A A A A A [ d.y.f.y.y.*.A A A A A A ^ $.A A A A A A A A A A A A A A A A M | { g y y y y y y y y y ",
"o o o o o o o + q Z O.W A A A A A A A A A A A A A A A A A A A [ d.f.f.i.,.S A A A A A A H / A A A A A A A A A A A A A A A A F $.d.H y y y y y y y y y ",
"o o o o o o o < | L A A A A A A A A A A A A A A A A A A A A A | f.f.q.f.q.S A A A A A A A A A A A A N A A A A A A A A A A A $.f.i.H y y y y y y y y y ",
"O o o o o o X < A A A A A A A A A N A A A A A A A A A A A A A ) q.y.f.i.$.D A A A A A A A A A A A A A A A A A A A A A A S D $.j.d.H y y y y y y y y y ",
"O o o o o o X < A A A A A A A A A A A A A A A A A A A N A A A A *.y.f.4.D A A A A A A A A A A A A A A A A A A A A N N N N / %.;.:.C y y y y y y y y y ",
"X o o o o o X , A A A A A A A A A A A A A A A A A A A A A N A [ y.f.f.,.D A A A A A A A A A A A A A A A A A A A A A M M d d d d d d t t d y y y y y y ",
"o o o o o o X : M A A A A A A A A A A A A A A A A A A A H A ..y.f.f.q.q.$.S A A A A A A A A A A A A A A A A A A A m d d d y t y t d d t t y y y y y y ",
"o o o o o o o $ k A A A A A A A A A A A A A A A A A A Z ..;.y.d.f.$.F F H A A A A A A A A A m j M A A A A A A A m g y y t y y y t t d t y y y y y y y ",
"o o o o o o o o w A A A A A Z $.A A A A A A A A A A A A 4.h.d.y.$.D A A A A A A A A A A A Z m d M M A A A A A A b y y y y y y y d t t d y y y y y y y ",
"o o o o o o o X : M A A C S F 1.H A A A A A A A A A A [ y.i.f.%.F M A A A A A A A A b g j l g p M A A A A A A n g y y y y y y y y y y y y y y y y y y ",
"o o o o o o o o + e A A A S O.y.^ A A A A A A A A A Z q.i.i.%.F M A A A A A A A b l d y y y y p M A A A A A A b y y y y y y y y y y y y y y y y y t y ",
"o o o o o o o o X & k A D O.y.u.y.[ Z A A A A A A D [ q.f.$.D A A A A A A A A c d y y y y y y l M M A A A A A b y y y y y y y y y y y y y y y y y d y ",
"o o o o o o o o o X 9 D [ u.y.y.d.d.%.A A A A A A F q.f.$.D N A A A A A A A N d y y y y y y l M N N A A A N A b y y y y y y y y y y y y y y y y y y y ",
"o o o o o o o o o o ; F y.y.j.l.i.f.i.` A A A A A A L [ D A A A A A A A A A m p y y y y y d M A N A A A A A A b y y y y t y y y y y y y y y y y y y y ",
"o o o o o o o o o o $ ^ j.s.y.y.f.i.f.4.D A A A A A A A A A A A A A A A N M p y y y y y y l N A N A A A A A A b y y y y d y y y y y y y y y y y y y y ",
"+ o o o o o o o o X $ | s.y.s.y.y.f.y.y.[ A A A A A A A A A A A A A A A A M p y y y y y g M N A A A A A A A A b y y y y y y y y y y y y y y y y y y y "
};
