/* XPM */
static char *b7453a6cacc44fce9c8c9a916a246a9eXDM8OWTCGgTg5H5S[] = {
/* columns rows colors chars-per-pixel */
"75 75 151 2 ",
"   c #3D6F8E",
".  c #3F708F",
"X  c #40708F",
"o  c #427291",
"O  c #497795",
"+  c #4B7996",
"@  c #457998",
"#  c #4F7C99",
"$  c #527E9A",
"%  c #56829D",
"&  c #59839E",
"*  c #4C85A4",
"=  c #5C86A1",
"-  c #5F89A2",
";  c #658DA5",
":  c #688FA7",
">  c #6B92AA",
",  c #7196AD",
"<  c #7599AE",
"1  c #759AB1",
"2  c #7C9EB3",
"3  c #6CA8BF",
"4  c #7FA2B6",
"5  c #6EA9C0",
"6  c #75AEC3",
"7  c #78AFC4",
"8  c #7BB1C5",
"9  c #81A3B7",
"0  c #82A5B8",
"q  c #89A7B9",
"w  c #87A8BB",
"e  c #8CACBD",
"r  c #84B7C9",
"t  c #86B8CA",
"y  c #8BBBCC",
"u  c #96B3C3",
"i  c #99B6C5",
"p  c #92BFCE",
"a  c #9FBBCA",
"s  c #A2BDCB",
"d  c #94C0CF",
"f  c #96C1D0",
"g  c #9CC5D3",
"h  c #A6C0CE",
"j  c #A1C7D4",
"k  c #ABC5D1",
"l  c #A4C9D6",
"z  c #A9CCD7",
"x  c #A5CBD8",
"c  c #ADCED9",
"v  c #B3CAD5",
"b  c #B0CFD9",
"n  c #B9CFD9",
"m  c #B4D2DC",
"M  c #BDD6DE",
"N  c #BFD8DF",
"B  c #B7D6E0",
"V  c #B8D7E0",
"C  c #BCD9E2",
"Z  c #C2D6DE",
"A  c #C0D8DF",
"S  c #C4D7E0",
"D  c #C4DBE1",
"F  c #C9DEE4",
"G  c #CEE2E7",
"H  c #CFE2E7",
"J  c #CCE1E6",
"K  c #CCE1E6",
"L  c #CFE2E8",
"P  c #CFE3E8",
"I  c #CBE2E9",
"U  c #D0E3E8",
"Y  c #D2E2E8",
"T  c #D2E3E9",
"R  c #D4E3E8",
"E  c #D1E4E9",
"W  c #D2E4E9",
"Q  c #D2E5E9",
"!  c #D1E5EA",
"~  c #D2E5EA",
"^  c #D3E5EA",
"/  c #D3E6EA",
"(  c #D4E4E9",
")  c #D4E6EA",
"_  c #D5E6EA",
"`  c #D4E6EB",
"'  c #D5E6EB",
"]  c #D5E7EB",
"[  c #D6E7EB",
"{  c #D1E6EC",
"}  c #D6E7EC",
"|  c #D2E5EA",
" . c #D8E7EC",
".. c #D6E8EC",
"X. c #D7E8EC",
"o. c #D7E8ED",
"O. c #D6E8ED",
"+. c #D8E9ED",
"@. c #D9E9ED",
"#. c #DAE9ED",
"$. c #DBE9ED",
"%. c #D9EAED",
"&. c #DAEAEE",
"*. c #DBEAEE",
"=. c #DBEBEF",
"-. c #DCEBEF",
";. c #DCECEF",
":. c #DAEAEE",
">. c #DBECF0",
",. c #DCECF0",
"<. c #DDECF0",
"1. c #DDEDF1",
"2. c #DEECF0",
"3. c #DEEDF0",
"4. c #DFEDF0",
"5. c #DFEDF1",
"6. c #DFEEF1",
"7. c #DEEDF1",
"8. c #E0EEF1",
"9. c #E0EFF1",
"0. c #E2EEF1",
"q. c #E0EFF2",
"w. c #E1EFF2",
"e. c #E2EFF2",
"r. c #E1EFF2",
"t. c #E2F0F2",
"y. c #E2F0F3",
"u. c #E3F0F3",
"i. c #E3F1F3",
"p. c #E4F1F4",
"a. c #E4F2F4",
"s. c #E5F2F4",
"d. c #E5F2F5",
"f. c #E6F2F5",
"g. c #E6F3F5",
"h. c #E7F3F5",
"j. c #E7F3F6",
"k. c #E7F4F6",
"l. c #E5F2F4",
"z. c #E8F4F6",
"x. c #E9F4F6",
"c. c #E9F5F6",
"v. c #E9F5F7",
"b. c #EAF5F7",
"n. c #EAF6F7",
"m. c #EBF6F7",
"M. c #E8F4F6",
"N. c #EBF6F8",
"B. c #EBF7F8",
"V. c #ECF7F9",
"C. c #EBF6F8",
/* pixels */
"y y y y y y y y y y y y y y y y y y y b A A A A A A A A A M g y y y y y d M N N A A A A A A N A A A A A A A { h.h.m.m.s.N.s.N.( % X X o o o o o o o + ",
"y y y y y y y y y y y y y y y y y y y b A A A A A A A A A g y y y y y y d M A N A A A A A A N D N A A A A A Z s.m.h.s.m.s.N.j.( % X o o o o o o o o X ",
"y y y y y y y y y y y y y y y y y y y c A A A A A A A A N g y y y y y d b N A N A A A A A S F ' F D A A A A A ) s.s.m.s.m.h.m.F ; X o o o o o o o o o ",
"y y y y y y y y y y y y y y y y y y y b A A A A A A A A l y y y y y y d A A A A A A A A A D :.h.s.D A A A A A D :.m.s.m.s.s.:.D 0 X o o o o o o o o o ",
"y y y y y y y y y y y y y y y y y y y c A A A A A A M l d t y y y y p c N A A A A A A A F :.m.s.{ D A A A A A A D ' s.m.h.' D D k % X o o o o o o o o ",
"y y y y y y y y y y y y y y y y y y y c A A A A A A m d y t y y f l c A A A A A A N N D :.m.s.s.D A A A A A A A N S ( s.:.D C S A e O X o o o o o o o ",
"y y y y y y y y y y y y y y y y y y g M Z A A A A A M d g g j j b A A A A A A A N N F >.h.h.s. .A A A A A A A A A A D w.F N A A A M > o o o o o o o o ",
"y y y y y y y y y y y y y y y y y y m A A A A A A A M d m A A A A A A A A A A N N F :.m.s.N.t.A A A A A A A A A A A D ) D A A A A A w o o o o o o o o ",
"y y y p y y y y y y y y y y y y y f m Z A A A A A A N j m A A A A A A A A A F F F ;.k.k.s.w.:.A A N A A A A A A A A A A A A A A A A k $ X o o o o o o ",
"y y y y y y y y y y y y y y y p p m Z Z A A A A A A N A A A A A A A A A A D ;.s.h.k.k.h.X.A A A A A A A A A A A A A A A A A N A A A M ; X o o o o o o ",
"y y y y y y y y y f f f f f f M M N A A A A A A A A A A A A A A A A A A A A D w.m.k.h...A A A A A A A A A A A A A A A A A A A A A A N , o o o o o o o ",
"y y y y y y y y y D >.>.>.P M C A A A A A A A A A A A A A A A A A A A A A A D 9.h.m.X.A A A A A A A A A A A A A A A A A A A A A A A A <   o o o o o + ",
"y y y y y y y y y D m.m.>.F N N A A A A A A A A A A A A A A A A A A A A A Z ;.h.m.s.a.{ A A A A A A A A A A A A A A N A A A A A D A S 1 o o o o o o o ",
"y y y y y y y y y D m.m.:.N A N A N A A A A A A A A A A A A A A A A A A Z A t.k.s.m.k.o.A A N A A A A A A A A A A A A A A A A A S F ' < X o o o o o o ",
"y y y y y y y y y I m.;.F A A A A A A A A A A A A A A A A ) F A A A A A A A h.h.m.s.m.o.A A A A A A A A A A A A A A A A A A A L  .Z q # o o o o o o o ",
"y y y y y y y y y g { ..N A A A A A A A A A A A A A N A A 5.K A A A A A A %.c.m.s.m.m.) A A A A A A A L o.) :.K A A A A A A A o.s & X o o o o o o o o ",
"y y y y y y y y y y V o.D N A A A A A A A A A A A A A A L t.K A N N S D ' h.s.N.m.k.m.o.A A A A A A A -.N.s.N.t.L A A A A A A v % . o o o o o o o o o ",
"y y y y y y y y y y C :.N N A A A A A A A A A A A A A D w.m.K N N N D ' b.s.N.s.s.s.m.' A A A A A A K w.N.s.s.N.5.D A A A A n ; o o o o o o o o o o o ",
"y y y y y y y y y y m R N A A A A A A A A A A A A A A A 5.m.K N D J { h.s.N.s.m.m.s.m.) A A A A A C 5.h.s.N.s.m.5.D N N A A N & o o o o o o o o o o o ",
"y y y y y y y y y y z A A A A A A A A N A A A A A A A F t.k.{ F :.s.N.s.N.s.m.s.s.m.m.) A A N N A F w.m.N.s.m.s.o.A N N A A { : . o o o o o o o o o o ",
"y y y y y y y y y y z A A A A A A A A A A A A A N N D w.s.m.h.s.s.m.s.m.s.m.s.m.N.N.N.' A A A N F w.m.s.s.a.w.o.A A A A A D _ : o o o o o o o o o o o ",
"y y y y y y y y y y j N A A A A A A A A A A N A N N F t.m.s.s.s.m.s.m.s.m.h.m.s.s.s.s.{ A A A F w.h.s.m.' D D D A A A A D -.0., . o o o o o o o o o o ",
"y y y y y y y y y y y z A A A A A A A A A A A A D F w.s.s.L F ..s.N.s.N.m.h.x.x.s.{ F D D N F e.h.h.h.h.s.( D D A Z F ;.0.x.x.e o o o o o o o o o o o ",
"y y y y y y y y y y y j A A A A A A A A A A A F 5.w.s.s.K D N D o.s.N.s.h.s.x.x.{ A N N C F 6.s.h.m.m.h.s.s.5.{ F w.w.h.m.x.x.i o o o o o o o o o o o ",
"y y y y y y y y y y y j A A A A A A A A A A A D F K F K A A A N { h.s.N.s.s.L F D N N K ;.5.s.N.h.b.h.h.s.N.N.s.5.m.m.s.m.s.N.e o o o o o o o o o o o ",
"y y y y y y y y y y y f z A A A A A A A A A A A S C A A A A A A ) N.N.h.N.a.D { o.:.o.5.k.m.m.s.b.h.b.h.N.s.N.h.m.k.s.m.s.m.w.< o o o o o o o o o o o ",
"y y y y y y y y y y y y g A A A A A A A A A A A A A A A A A A A F -.h.h.h.s.:.s.N.m.N.s.k.m.s.m.h.V.h.V.N.m v h.k.k.m.s.h.b.k + o o o o o o o o o o o ",
"y y y y y y y y y y y y g A A A A A A A N A A A A A A A A N A A N K h.N.N.m.h.h.s.N.s.N.m.s.m.s.e.k a s s , q V.k.k.s.m.b.R ; o o o o o o o o o o o o ",
"p y y y y y y y y y y y g C A A A A A A A A A A A A A A A A A A N ( N.s.h.h.h.N.N.s.N.s.s.N.s.N.,.&   o o X , S b.h.h.b.$.9 X X o o o o o o o o o o o ",
"y y y y y y y y y y y y g C N N A A A A A A A A A A A A A A A A D ' s.N.h.N.h.h.s.N.s.N.N.s.b.N.w.4 + o o o X : S b.b.b.u o o X o o o o o o o o o o o ",
"y y y y y y y y y y p g c D S N A A A A A A A A A A A A A A A N { s.N.s.N.s.N.s.m.s.h.s.a.s.b.s.b.,.: X o o o o : Z F Z = X o o o o o o o o o o o o o ",
"y y y y y y y y y y B d.e.,.D N A A N A A A A A A A A A A A A N ) h.s.N.s.N.s.N.h.m.s.{ L b.j.b.s.e.> X o o o o o # + # o o o o o o o o o o o o o o o ",
"y y y y y y y y y y C m.m.;.A N A A A A N A A A A A A A A A A N ) h.s.N.s.N.s.N.h.h.) S K m.m.s.m.' ; o o o o o o o o o o o o o o o o o o o o o o o o ",
"y y y y y y y y y y V m.k.m.;.A A A A A A A A A A A A A A A A N ) h.N.h.N.s.N.s.h.) D N L s.s.m.,.1 O o o o o o o o o o o o o o o o o o o o o o O o o ",
"y y y y y y y y y y V N.m.s.t.F A A A A A A A A A A A A A A A N ) m.h.h.s.N.s.N.h.H N N K k.k.s. .= . o o o o o o o o o o o o o o o o o o o o o o o o ",
"y y y y y y y y y m :.m.s.m.s.A A A A A A A A A A A N A A A A A D  .h.N.N.s.N.s.) D N N L m.m.:.4 + o o o o o o o o o o o o o o o o o o o o o o o o o ",
"x I m y y y y y y D V.k.c.c.9.Z A A A A A A A A A A A A A A A A N D ' s.s.s.N.s.F A S N L h.N.R # . X X X o o o o o o o o o o o o o o o o o o o o o o ",
"j C C B m y y y c O.k.k.c.s.H A A A N A A A A A A A A A A A A A A N F :.h.N.s.N.-.D N F ,.b.s.F u 4 0 9 0 - . . . o o o o o o o o o o o o o o o o o o ",
"y t x k.a.B d y I N.k.N.t.Q A A A A A A A A A A N A A A A A A N A A C F s.s.N.s.m.:.D F :.' { A N A D A L k q w 1 o . o o o o o o o o o o o o o o o o ",
"y y x k.k.q.B x o.k.j.a.Q A A A A A A A A A A A A A A A A A A A A A D F s.N.s.N.s.m.) N N D A A M C N A L t.k.N.F 2 1 @ o o o o o o o o o o o o o o o ",
"y y x C.C.k.k.k.h.c.c...N A A A A A A A A A N A A A A A A A A A A A N F k.N.s.N.s.N.{ A A A A A A A A A S { N.s.N.j.` $ o o o o o o o o o o o o o o o ",
"y y g >.k.k.k.k.c.c.h.Q A A A N A A A A A A A A A A A A A A A A A A N F s.s.N.s.N.s.( N A A A A A N A A N ( s.m.j.a.Z $ o o o o o o o o o o o o o o o ",
"y y y g d.k.k.k.c.s._ A A N A A A A A A A A A A A A A A A A A A A A N F j.N.s.N.m.h.) D A A A A A A A A N A { s.N.F = o o o o o o o o o o O o o o o o ",
"y y y g a.k.N.k.h._ A A N N A A A A A A A A A A N A A A A A A A A N N F s.s.N.s.h.h.s.{ A A A A A A A A A N ( h.N.F % + # o o o o o o o o o o o o o O ",
"y y p g a.k.k.j.Q A A A b j Z A A A A A A A A A A A A A A A A A A A N F s.s.s.N.h.m.h. .A A A A A A A A A N ( s.b.e.F D S : o o o o o o o o o o o o * ",
"y y y g e.j.s.{ A A A b d f M Z A A A A A A A A A A A A A N A A A A N F s.m.N.s.h.h.:.D A A A A A A A A A N ( s.b.h.V.N.N.D > X o o o o o o o o o o @ ",
"y y y g a.s.j.5.F A b d y d g g j M A A A A A A A A A A A A A A A A F >.k.N.s.N.N.m.{ A A A A A A A A A A A D F L L L s.s.b.2 o o o o o o o o o o o o ",
"y y y g a.N.k.j.J A j t y y y y y g j m A A A A A A A A A A A A A N F m.m.s.N.s.h.:.D A A A A A A A A A C D S N N N D ( e.s = o o o o o o o o o o o o ",
"y y y g y.C.k.k.O.D j y y y y y y y t b N N A A A A A A A A A A A N F m.s.N.k.k.:.D N F ) K A C A A A N A A A S N N A D ;.:   X o o o o o o o o o o o ",
"y y y g y.k.k.C.k.>.x y y y y y y y d g m N A A A A A A A A A A A N F -.j.s.m.k.J N N P m.w.K S A A A A A A A D J N A A { i 0 & . o o o o o o o o o o ",
"y p y g y.C.C.C.k.N.B y y y y y y y y y z D A A A A A A A A A A A A A F s.N.k.5.F N N ( m.h.e.D N N N N A A A H w.J A A A ;.m.h $ X o o o o o o o o o ",
"y y y g y.C.{ k.N.k.D f p y y y y y y y z A A A A A A A A A A A A A C F 5.s.s.F A A D K w.m.s.F F F F F D A A K k.w.A A F w.h.m.k = o o o o o o o o o ",
"y y y c d.{ g I d.d.C.C y y y y y y y y b A A A A A A A A A A A A A A A F s.s.F N A A A K s.s.h.s.s.s.s.) A A K b.a.F D w.m.s.m.:.u X o o o o o o o o ",
"y y x >.{ g y f I C.C.D p y y y y y y y z A A A A A A A A A A A A A A A D s.s.L A A A A A L h.h.s.s.s.s.x.{ A K s.s.w.F w.h.h.w.u + o o o o o o o o o ",
"y y j { g y y y I C.k.d.C y y y y y t d z A A A A A A A A A A N A A A N D s.h.w.F D A A N F s.s.F F D :.m.) A K N.s.s.s.s.s.m.u # X o o o o o o o o o ",
"y y f g y y y y f I j.C.I y y y y y y z M A A A A A A N A A A A A A A A D a.m.m.t.F N A N F m.t.D C A F :.s.H K s.N.N.s.N.m.k.w X o o o o o o o o o o ",
"y y y y y y y y y g I k.I y y y y y y b A N A A N N M g M A A A A A A A D s.h.m.m.L C A A F m.w.D A A A F F ) w.N.s.m.s.N.s.i %   X o o o o o o o o o ",
"y y y y y y y y y t C V.I y y y y y y z A A A A N N M d g M Z A A A A A F w.m.s.' D A A A F s.t.D A A A A A D K ' N.s.m.s.N.M k 2 X o o o o o o o o o ",
"y y y y y y y y y y C d.B y y y y d j m A A A A A A m d t g m A A A A N D a.s.N.K A A A A F s.{ D A A A A A A N D _ h.h.h.b.m.V.S 2 X o o o o o o o o ",
"y y y y y y y y y y x C c y y y y y m m z z b A A A M d y y b A A A A D { s.N.s.F N A A A F ( A A A A A A A A N C D s.m.b.h.h.h.V.D 1 o o o o o o o o ",
"y y y y y y y y y y y l c y y y y g M g t y g m A A M p y y c A N A N F s.h.h.N.F A A A A A A A A A A A A A A A S D s.b.h.b.s.N.h.V.F , o o o o O o o ",
"t y y y y y y y y y y j c y p f g n m d y y y d m N b y y y c A A N D { h.N.s.5.F A A A A A A A A A A A A A A A C F s.s.b.h.N.s.m.h.h.S @ o o o o o o ",
"8 t y y y y y y y y y c c y g V N N g y y y y y g n p y y y c A A N J s.m.k.s.J A A A A A A A A A A A A A A N N D J s.b.s.N.s.N.m.h.V.S @ o o o o o o ",
"3 7 y y y y y y y y l S b g M S N N d y y y y y d b y y y y c A A A L k.s.k.w.F A A A A A A A A A A A A A A A N F s.N.s.N.s.N.s.h.h.V.S + o o o o o o ",
"3 7 y y y y y y y y l N N M A A A M f y y y y y y y y y y y m A A { s.m.h.t.F A A A A A A A A A A A A A A N A N F s.s.h.m.h.s.N.s.N.a.n O o o o o o o ",
"3 7 y r 6 t y y y y p l N N A A M f y y y y y y y y y y y y c A L a.s.s.t.F A A A A A A A A A A A A A A A A A A D D F w.m.h.N.h.N.s.n = o o o o o o o ",
"3 6 y r 5 6 t y y y y y l A A A N d y y y y y y y y y y y y d C t.5.F F F A A A A A A A A N A A A A A A A A A A A A Z F w.m.s.h.m.n = . o o o o o o o ",
"7 r y r 5 5 t y y y y y g Z A A N d y y y y y y y y y y y y y g J :.A N N A A A A A A A A A A A A A A A A A A A A A D A w.h.N.N.v = . o o o o o o o o ",
"r y y r 5 5 r y y y y y p x N N M p y y y y y y y y y y y y y t g z z A A A A A A A A A A A A A A A A A A A A A A A A D e.j.s 9 ; o o o o o o o o o o ",
"y y t 6 5 8 y y y y y y y p x N M d y y y y y y y y y y y y y y y y p z N A A A A A A A A A A A A A A A A A A A A A A A 6.N.v ; . o o o o o o o o o o ",
"r 8 6 5 5 y y y y y y y y y d M M d y y y y y y y y y y y y y y y y y d M A A A A A A A A A A A A A A A A A A A A A N D e.k.N.w   o o o o o o o o o o ",
"8 5 5 5 5 y y y y y y y y y f M M d t y y y y y y y y y y y y y y y y p b M A A A A A A A A A A A A N A A A A A A A C L a.k.s.k = . o o o o o o o o o ",
"7 5 5 3 5 8 y y y y y y y y f M m d y y y y y y y y y y y y y y y y y y p M A A A A A A A A A A A A A A A A A N N D K s.s.N.s.N.i o o o o o o o o o o ",
"5 5 3 3 3 5 y y y y y y y y f c d y y y y y y y y y y y y y y y y y y y p M N N A A A A A N A A A A A A A A A D D K s.h.N.s.N.N.i . o o o o o o o o o ",
"3 3 3 3 5 5 r y y y y y y y y y y y y y y y y y y y y y y y y y y y y y p M N N A A A A A A N N A A A A A A A F s.s.h.m.h.N.h.N.i . o o o o o o o o o "
};
