/* XPM */
static char *_12e77dc13ef4c60ac28b126275fb2b6wzDyTNdeMOIA8QsI[] = {
/* columns rows colors chars-per-pixel */
"75 75 163 2 ",
"   c #3D6F8E",
".  c #3F708F",
"X  c #40708F",
"o  c #427291",
"O  c #497795",
"+  c #4B7996",
"@  c #457998",
"#  c #4F7C99",
"$  c #527E9A",
"%  c #56829D",
"&  c #59839E",
"*  c #4C85A4",
"=  c #5C86A1",
"-  c #5F89A2",
";  c #658DA5",
":  c #688FA7",
">  c #6B92AA",
",  c #7196AD",
"<  c #7599AE",
"1  c #759AB1",
"2  c #7C9EB3",
"3  c #6CA8BF",
"4  c #7FA2B6",
"5  c #6EA9C0",
"6  c #75AEC3",
"7  c #78AFC4",
"8  c #7BB1C5",
"9  c #81A3B7",
"0  c #82A5B8",
"q  c #89A7B9",
"w  c #87A8BB",
"e  c #8CACBD",
"r  c #84B7C9",
"t  c #86B8CA",
"y  c #8BBBCC",
"u  c #96B3C3",
"i  c #99B6C5",
"p  c #92BFCE",
"a  c #9FBBCA",
"s  c #A2BDCB",
"d  c #94C0CF",
"f  c #96C1D0",
"g  c #9CC5D3",
"h  c #A6C0CE",
"j  c #A1C7D4",
"k  c #ABC5D1",
"l  c #A4C9D6",
"z  c #A9CCD7",
"x  c #A5CBD8",
"c  c #ADCED9",
"v  c #B3CAD5",
"b  c #B0CFD9",
"n  c #B9CFD9",
"m  c #B4D2DC",
"M  c #BDD6DE",
"N  c #BFD8DF",
"B  c #B7D6E0",
"V  c #B8D7E0",
"C  c #BCD9E2",
"Z  c #C2D6DE",
"A  c #C0D8DF",
"S  c #C4D7E0",
"D  c #C4DBE1",
"F  c #C9DFE4",
"G  c #C9DEE4",
"H  c #CADFE5",
"J  c #CBDFE5",
"K  c #CBDEE5",
"L  c #C9DEE4",
"P  c #CBE0E5",
"I  c #C8E0E7",
"U  c #CBE0E6",
"Y  c #CCE0E6",
"T  c #CCE1E6",
"R  c #CDE1E6",
"E  c #CDE1E7",
"W  c #CEE2E7",
"Q  c #CFE2E7",
"!  c #CDE1E7",
"~  c #C9E1E8",
"^  c #C8E1E8",
"/  c #CBE2E9",
"(  c #CFE3E8",
")  c #CFE2E8",
"_  c #CCE3EA",
"`  c #CFE4EB",
"'  c #CFE2E8",
"]  c #D0E3E8",
"[  c #D2E3E9",
"{  c #D1E4E9",
"}  c #D2E4E9",
"|  c #D2E5E9",
" . c #D1E5EA",
".. c #D2E5EA",
"X. c #D3E5EA",
"o. c #D3E6EA",
"O. c #D4E6EA",
"+. c #D4E6EB",
"@. c #D5E7EB",
"#. c #D5E6EB",
"$. c #D6E7EB",
"%. c #D3E7EC",
"&. c #D1E6EC",
"*. c #D6E7EC",
"=. c #D3E5EA",
"-. c #D8E7EC",
";. c #D5E8ED",
":. c #D6E8EC",
">. c #D7E8EC",
",. c #D7E8ED",
"<. c #D5E8EE",
"1. c #D7E9EE",
"2. c #D7E8EC",
"3. c #D8E9ED",
"4. c #D9E9ED",
"5. c #DAE9ED",
"6. c #D9EAEF",
"7. c #DAEAEE",
"8. c #DBEBEF",
"9. c #DBEBEE",
"0. c #DCEBEF",
"q. c #DCECEF",
"w. c #DAEAEE",
"e. c #DAEBF0",
"r. c #DBECF0",
"t. c #DDECF0",
"y. c #DDEDF1",
"u. c #DEEDF0",
"i. c #DFEDF1",
"p. c #DFEEF1",
"a. c #DFEEF2",
"s. c #DFEDF1",
"d. c #E0EEF1",
"f. c #E0EFF1",
"g. c #E0EFF2",
"h. c #E1EFF2",
"j. c #E1EFF2",
"k. c #E2F0F2",
"l. c #E2F0F3",
"z. c #E3F0F3",
"x. c #E3F1F3",
"c. c #E3F0F2",
"v. c #E4F1F3",
"b. c #E3F1F4",
"n. c #E4F1F4",
"m. c #E4F2F4",
"M. c #E5F2F4",
"N. c #E5F2F5",
"B. c #E6F2F5",
"V. c #E6F3F5",
"C. c #E7F3F5",
"Z. c #E7F3F6",
"A. c #E7F4F6",
"S. c #E5F2F4",
"D. c #E8F4F6",
"F. c #E9F4F6",
"G. c #E9F5F6",
"H. c #E9F5F7",
"J. c #EAF5F7",
"K. c #EBF6F7",
"L. c #E8F4F6",
"P. c #EBF6F8",
"I. c #EBF6F8",
/* pixels */
"3 3 7 8 t y t 7 5 3 5 3 7 t y y y y y y y y y y y y y y y y y y y y y y y x x y y y y y y y y y y y y y y y y y y y y y y y y y y y y y y y y y y y y ",
"3 3 3 3 8 y y r 7 7 7 7 r y y y y y y y t y y y y y y y y y y y y y t y t C G y y y y y y y y y y y y y y y y y y y y y y y y y y y y y y y y y y y y ",
"3 3 3 3 7 t y y y y y y y y y y y y y d x x y y y y y y y y y y y l x x x C B t y y y y y y y y y y y y y y y y y y y y y y y y y y y y y y y y y y y ",
"3 3 3 3 5 7 r r r r y y y y y y y y t g <.a.x g g x g g g g g g x e.N.A.H.C y y y y y y y y y y y y y y y y y y p y y y y y y y y y y y y y y y y y y ",
"3 3 5 6 3 5 5 5 5 7 y y y y y y y y y y g %.m.N.N.N.m.m.m.m.m.m.m.N.H.H.a.m t y y y y y y y y y y y y y y y y y y y y y y y y y y y y t y y y y y y y ",
"3 6 r t y 8 5 5 6 t y y y y y y y y y y y g %.H.H.H.A.A.H.N.D.D.H.H.H.a.B y y y y y y y y y y y y y y y y y y y y y y y y y y y y y y d y y y y y y y ",
"r t y y y y r r t y y y y y y y y y y y y y g e.H.H.A.A.A.N.D.D.A.A.N.B d y y y y y y y y y y y y y y y y y y y y y y y y y y y y y y y y y y y y y y ",
"y y y y y y y y y y y y y y y y y y y y y d ~ N.N.H.A.A.e.{ A.D.A.A.H.x y y y y y y y y y y y y y y y y y y y y y y y y y y y y y y y y y y y y y y y ",
"y y y y y y y y y y y y y y y y y y y f ~ &.N.A.G.G.9.P F A | G.A.A.D.<.` c y t y y y y y y y y y y y y y y y y y y y y y y y y t y y y y y y y y y y ",
"y y y y y y y y y y y y y y y y y t g ~ A.K.H.H.G.4.F A A N A O.N.A.D.D.D.7.D B y y y t y y y y y y y y y y y y y y y l G D G C d y y y y y y y y y y ",
"y y y y y y y y y y x l d y y x C C ^ A.A.A.A.D m c j j b A A A { M.P.A.D.D.D.q.C C C V p y y y y y y y y l l z m C C &.P.H.H.y.d y y y y y y y y y y ",
"y y y y y y y y y x A A x j j A x.K.K.A.m.I C f t d t d d b A M D O.<.x.D.D.D.D.P.P.P.m.g y y y y p l j l N A D O.7.7.*.y.H.H.y.d y y y y y y y y y y ",
"y y y y y y p g l N M b c m c c M ^ ^ ^ C d y y t t d t d d z M A A A [ x.D.D.D.N.A.D.N.z g g g g z A A A A A A A A A A G 7.i.e.d y y y y y y y y y y ",
"y y y y y p z N A A M g y y y y y y d t y y y y d t d t d g g M A A A A [ M.D.A.D.A.i.7.D A A A A A A A A A A A A A A A C D D ` d y y y y y y y y y y ",
"y d d d d z A A A A A M j y y y y y y y y y y y y y t t g M N A A A A A A { h.h.h.7.D D D A A A A A A A A A A A A A A A A A D m g y y y y y y y y y y ",
"y c M M M M A A A A A A M f y y y y y y y y y y y y y y g A A N A A A A A A D D D D N N N N A A A A A A A A A A A A A A A A A A M d y y y y y y y y y ",
"y d b M M M M M M M N N N g y y y y y y y y y y d 8 d d d M A A A A A A A A A A A A A A A A A A A A A A A A A A A A A A A A A A M d y y y y y y y y y ",
"y y d d d d d d d d M M N m f d y y y y y y y y r d d d M M A A A A A A A N A A A A A A A A A A A A A A A A A A A A A A A A A A A m f y y y y y y y y ",
"y y y y y y y t y d d d g m m m j y y y y y y y d r d l N N N A A A A A A A A A A A A A A A A A A A A A A A A A A A A A A A A A A A m n g y y y y y y ",
"y y y y y y y y y t d y y d g m m b b z d y y y d g z n M N A A A A A A A A A A A A A A N A A A A A A A A A A A A A A A A A A A A A A A M c c b b c b ",
"y y y y y y y y t y y y y y t z A A A N z z z z z m D A A A A A A A A N A A A A A A A A A A A A A A A A A A A A A A A A A A A A A A A A A A A A A A A ",
"y y y y y y y y d y y y y y y z A A A A N A A A A A A A A A A A A A A A A A A A A A A A A A A A A A A A A A A A A A A A A A A A A A A A A A A A A A A ",
"y y y y y y y y y y y y y y f n A A A A A A A A A A A A M A A A A A A A A A A A A A A A A A N A A A A A A A A A N A A A A A A A A A A A A A A A A A A ",
"y y y y y y y y y y y y y d m A A A A A A A A A A A A A A A A A A A A A A A A A A N A A A A A A A A Z Y A A A A A A A A A A A A A A A A A A A A A A A ",
"y y y y y y y y y y y d f m A A A A A A A M A A A A A A A A A A A A A A A A A A A A A A A A A A A N Y q.A A A A A A A A A A A A A A A A A A A A A A A ",
"y y y y y y y y y y y m m M A A A A A A A A A A A A A A A A A A A A A A N A A A A A A A A A A A A N Y x.L A A A A A A A A A A A A A A A A A A A A A A ",
"y y y y y y y y y y y d d c M M M m M A A A A A A A A A A A A A A A A A A A A A N A A A A A A A A N Y A.x.D D A A A A A A A A A A A M N m M M A A A A ",
"y y y y y y y y y y y y y y d d d d j A A A A A A A A A A A A A A A A A A A A A A A A A A A A A A N P N.A.x.h.L A D A A A A A A A M j p p p l Z A A A ",
"y y y y y y y y y y y y y y y y d d N A A A A A A A A A A A A A A A A A A A A A A A A A A A A A A A A Q D.D.D.x.h.h.Y N A A A A A A m m g y y j N A A ",
"y y y y y y y y y y y y y y y y g m A A A A A A A A A A A A A A A A A A A A A A A A A A A A A A A A A A Y N.D.D.D.D.x.i.O.A A A A A A Z j y y p f j N ",
"y y y y y y y y d c c c c c c c m A A A A A A A A A A A A A A A A A A A N A A A A A A A A A A A A A A A D M.D.O.Y ( Y [ G A A A A A A A j t y y y y g ",
"y y y y y y y g C N A A A A A A A A A A A A A A A A A A A A A A A A A A A A A A N N N N N A A A A N A D 7.D.N.D N A N N A A A A A A A A j y y y y y y ",
"y y y y y y g G M.{ A A A A A A A A A A A A A A A A A A A A A A A A A A A A N D O.O.{ O.O.D A Z L { { 7.D.D.N.4.D A A A A A A A A A A A c g y y y y y ",
"y y y y y y z 7.q.M.{ D N A A A A A A A A A A A A A N A N A A N A A N N A N D <.D.D.D.D.D.O.' ' 7.D.D.D.D.D.D.D.P A A A A A A A A A A A A j y y y y y ",
"y y y y y y z A G D.M.Y P D N A A A A A A A A A N D Y Y D A N N N N N N A D 4.D.D.D.D.D.D.D.D.D.D.D.D.D.D.D.D.A.O.A A A A A A A A A A A A c p y y y y ",
"y y y p g z A N L N.D.A.N.[ L D A A A A A A A D P q.D.D.q.P L L L L L L L 4.D.D.D.D.D.D.D.D.D.D.D.D.D.D.D.D.D.D.D.O.D A A A A A A A A A A A b d d y y ",
"f f f b N A A A L x.A.D.D.N.A.O.D D D L D D L i.D.N.D.D.A.C.C.C.M.A.M.A.A.M.D.D.D.D.D.D.D.D.D.D.D.D.D.D.D.D.D.D.D.A.4.Z A A A A A A A A A N N N m d p ",
"m m m A A A A A A L x.D.D.A.D.N.A.N.x.M.M.M.N.A.D.D.D.D.D.D.A.A.D.D.D.D.A.D.D.D.D.D.D.D.D.D.D.D.N.M.M.D.D.D.D.D.D.D.D.O.D D D A N D A A A A A A A m N ",
"A A D A A A A A A A L x.A.A.D.D.D.D.D.D.D.N.A.D.D.D.D.D.D.D.D.D.D.D.D.D.D.D.D.D.D.D.D.D.D.D.D.D.7.D ] D.D.D.D.D.D.D.D.N.h.M.9.D D q.L A A A A A A A A ",
"A A A A A A A A A A A D G i.D.A.A.D.D.D.x.P L G q.D.D.D.D.D.D.D.D.D.D.D.D.D.D.D.D.D.D.D.D.D.D.D.M.{ Y D.D.D.D.D.D.D.D.D.D.D.N.h.i.M.L N A A A A A A A ",
"A A A A A A A A A A A A A G Y Y P >.D.M.P A A A D Y q.D.D.D.D.D.D.D.D.D.D.9.J O.D.D.D.D.D.D.D.D.D.4.D { A.A.D.D.D.D.D.D.D.D.D.D.D.N.L N N A A A A A A ",
"A A A A A A A A A A A A A N N N N D Y Y A A A A A N L 7.D.D.D.A.D.D.D.D.7.D A D ' O.F.D.D.D.D.D.D.q.A A ] A.D.D.D.D.D.D.D.D.D.D.D.A.q.L N A A A A A A ",
"A A A A A A A A A A A A A A A A A A N N A A A N N N N L { 7.D.A.O.{ O.O.L N A A A A O.N.D.D.D.D.D.3.N N D C.D.D.D.D.D.D.D.D.M.>.A.A.D.q.L A A A A A A ",
"A A A A A A A A A N A A A A A A A A A A A N D Y { >.D A A D >.O.D N N A G L N A A A A O.A.D.D.D.D.f.Q A A >.>.>.>.>.>.>.>.4.O.A O.A.D.D.q.D N A A A A ",
"A A A A A A A A A A A A A A A D N D N A N A Y M.D.D.O.A A A A A A A A A 7.9.Y ' Y Y ] ] x.D.D.D.D.D.q.A A A A A A A A A A A A A D >.M.D.D.q.D N A A A ",
"A A A A A A A A A A A A A A A D G J G J G Y M.D.D.x.Y A A A A A A A A A 7.D.F.F.D.D.D.D.D.D.D.D.D.D.f.P A A A A A A A A A A A A A A i.D.D.D.q.L A A A ",
"A A A A A A A A A A A A A A A { M.N.N.D.F.N.D.x.h.Y A A A A A A A A A A { N.D.D.D.D.D.D.D.D.D.D.D.D.A.x.P N A A A A A A A A A A A D 7.x.M.D.D.q.D A A ",
"A A A A A A A A A A A A A A A A { x.M.h.x.F.F.G D A A A A A A A A A A A D G [ 9.D.K.D.D.D.D.D.D.D.A.A.C.x.D A A A A A A A A A A A A A Z O.M.M.D.>.A A ",
"A A A A A A A N A A A A A A A A D D D D L M.A.L N A A A A A A A A A A A m u # 4 7.t.A.D.D.i.7.x.D.D.D.D.D.h.L N A A N A A A A A A A A A A D { M.Y A A ",
"A A A A A A A A A A A A A A A A A A A N D M.A.L N A A N A A A A A A A A D 4 . + = 1 ,.h.i.9 & k D.D.D.D.D.D.h.L A A A A A A A A A A A A A A D D A A A ",
"A A A A A A A A A A A A A A A A A A A A D M.N.L N A A A A A A A A A N N D 4 X o X O ; > > O   a K.D.D.D.D.D.N.h.h.G A A A A A A A A A A A A A A A A A ",
"A A A A A A A A A A A A A N A A A A A D q.D.N.L N A A A A A A A A A N N D 0 . o o o . o . o . s K.D.D.D.D.D.D.F.F.h.q.[ A A A A A A A A A A A A A A A ",
"A A A A A A A A N A A A A A A A A A L 9.D.N.{ D A A A A A A A A A N A [ ( 0 . o o o o o o o o s I.D.D.D.M.O.M.F.D.D.D.>.A A A A A A A A A A A A A A A ",
"A A A A A N A A A A A A A A A A A A G M.O.{ D N A A A A A A A A A { O.x.k - o o o o o o o o   > N D.D.M.{ D x.D.D.D.D.-.A A A A A A A A A A A A A A A ",
"N A A A A A A A A A A A A A A A N D O.O.A A D N N A A A D { { { { N.D.P.w   o o o o o o o o > w v D.D.h.D D h.D.D.D.D.<.A A A A A A A A A A A A A D { ",
"J D A A A A A A A A N N A A A A N [ h.Y Y Y Y Y Y D A A Y D.D.D.D.D.A.P.w   o o o o o o o > S D.D.D.N.O.A D 7.N.D.D.M.Y A A N A A A A A A A A D >.x.D.",
"M.L A A A A A A A S L L A N A N D >.D.D.D.D.F.N.h.G N N ( J.J.I.D.D.F.J 1 . o o o o o O : Z F.F.D.D.i.P A A Z 7.h.h.Y A A A A A A A A A A A A q.D.D.M.",
"N.Y A A A A A A A D M.N.Y L L D O.D.D.D.D.D.x.h.J N N N ( J.h.K J N.F.2 o o o o o o X # Z K.F.F.D.D.D.q.D A A A A A A A A A A A A A A A A A 4.D.D.D.D.",
"D.M.Y D A A A A A G N.D.N.M.N.M.F.D.D.D.D.x.L A A A N N [ F.L $ & M *., . o o o o o X # K K.F.F.D.D.D.x.D A A A A A A A A A A A A A A A D { N.D.D.D.F.",
"D.D.N.Y A D A D G N.D.D.D.D.D.D.D.D.D.D.x.G D N A D D [ N.P.G + o $ % O o o o o o o X # Z F.F.F.D.D.D.D.q.D A A A A A A A A A A A A A >.M.N.D.D.D.D.F.",
"D.D.D.x.h.h.h.h.x.D.D.D.D.D.D.D.N.F.F.D.N.h.h.G A [ 9.h.Z.P.S + o o o o o o o o o o o o - e 5.K.D.D.D.D.M.Z A A A A A A A A A A A A A D L 4.C.D.D.D.D.",
"D.D.D.D.D.D.D.D.D.D.D.D.D.D.D.D.F.F.F.N.D.F.F.h.q.i > s P.L : O o o o o o o o o o o o o X X 9 [ D.D.D.D.F.q.D A A A A A A A A A A A A A N D >.C.D.D.D.",
"D.D.D.D.D.v h D.D.D.D.D.D.D.D.D.D.N i N.D.D.D.D.D.9   & 2 > o o o o o o o o o o o o o o o o X : v h.D.I.D.h.O.O.N n N A A A A A A A A A A N L 4.D.D.D.",
"I.I.D.k w ; 0 D.D.D.D.D.D.D.D.D.I.k % w i x.D.D.h = X o . X o o o o o o o o o o o o o o o o X X + < e i e , : : & ; v >.[ A A A A A A A A A Z Z R [ =.",
"i i i =     ; v D.F.F.F.F.F.F.I.S 1 o   + i 7.k &   o o o o o o o o o o o o o o o o o o o o o o o o o o . . o . o o & s ,.A A A A A A A A A k 0 ; % % ",
". o o o o o   - v F.F.F.D.N.I.S 2 X o o o + u % X o o o o o o o o o O o o o o o o o o o o o o o o o o o o o o o o o . & Z J A A A A A A M e % X X o X ",
"o o o o o o o o & M A.I.D.K.G 1 X o o o o o o o o o o o o o o o o o o o o o o o o o o o o o o o o o o o o o o o o o o o q 5.Z A A M k w > + X X o o o ",
"o o o o o o o o o & m D D Z , o o o o o o o o o o o o o o o o o o o o o o o o o o o o o o o o o o o o o o o o o o o o o + < < < , : # X X o o o o o o ",
"o o o o o o o o o o O + O O O o o o o o o o o o o o o o o o o o o o o o o o o o o o o o o o o o o o o o o o o o o o o o o . . o o X o o X o o o o o o ",
"o o o o o o o o o o o o o o o o o o o o o o o o o o o o o o o o o o o o o o o o o o o o o o o o o o o o o o o o o o o o o o o o o o o o o o o o o o o ",
"o o o o o o o o o o o o o o o o o o o o o o o o o o o o o o o o o o o o o o o o o o o o o o o o o o o o o o o o o o o o o o o o o o o o o o o o o o o ",
"o o o o o o o o o o o o o o o o o o o o o o o o O o o o o o o o o o o o o o o o o o o o o o o o o o o o o o o o o o o o o o o o o o o o o o o o o o o ",
"o o o o o o o o o o o o o o o o o o o o o o o o o o o o o o o o o o o o o o o o o o o o o o o O o o o o o o o o o o o o o o o o o o o o o o o o o o o ",
"o o o o o o o o o o o o o o o o o o o o o o o o o o o o o o o o o o o o o o o o o o o o o o o o o o o o o o o o o o o o o o o o o o o o o o o o o o o ",
"o o o o o o o o o o o o o o o o o o o o o o o o o o o o o @ * o o o o o o o o o o o o o o o o o o o O o o o o o o o o o o o o O o o o o o o o o o o + "
};
